<?xml version="1.0" encoding="UTF-8"?>
<svg width="15px" height="16px" viewBox="0 0 15 16" version="1.1" xmlns="http://www.w3.org/2000/svg" xmlns:xlink="http://www.w3.org/1999/xlink">
    <!-- Generator: Sketch 52.5 (67469) - http://www.bohemiancoding.com/sketch -->
    <title>add to cart icon copy</title>
    <desc>Created with Sketch.</desc>
    <g id="UI" stroke="none" stroke-width="1" fill="none" fill-rule="evenodd">
        <g transform="translate(-51.000000, -1901.000000)" fill="#0096EA" id="add-to-cart-icon-copy">
            <path d="M64,1902 L64,1904 L66,1904 L66,1906 L64,1906 L64,1908 L62,1908 L62,1906 L60,1906 L60,1904 L62,1904 L62,1902 L64,1902 Z M53,1911 L53,1903 L51,1903 L51,1901 L54,1901 C54.6,1901 55,1901.4 55,1902 L55,1910 L65,1910 L65,1912 L54,1912 C53.4,1912 53,1911.6 53,1911 Z M55.414214,1913.58579 C56.195262,1914.36684 56.195262,1915.63317 55.414214,1916.41421 C54.633165,1917.19526 53.366835,1917.19526 52.585786,1916.41421 C51.8047379,1915.63317 51.8047379,1914.36684 52.585786,1913.58579 C53.366835,1912.80474 54.633165,1912.80474 55.414214,1913.58579 Z M65.41421,1913.58579 C66.19526,1914.36684 66.19526,1915.63317 65.41421,1916.41421 C64.63316,1917.19526 63.36684,1917.19526 62.58579,1916.41421 C61.80474,1915.63317 61.80474,1914.36684 62.58579,1913.58579 C63.36684,1912.80474 64.63316,1912.80474 65.41421,1913.58579 Z"></path>
        </g>
    </g>
</svg>