<?xml version="1.0" encoding="UTF-8"?>
<svg width="15px" height="16px" viewBox="0 0 15 16" version="1.1" xmlns="http://www.w3.org/2000/svg" xmlns:xlink="http://www.w3.org/1999/xlink">
    <!-- Generator: Sketch 52.5 (67469) - http://www.bohemiancoding.com/sketch -->
    <title>add to cart icon</title>
    <desc>Created with Sketch.</desc>
    <g id="Symbols" stroke="none" stroke-width="1" fill="none" fill-rule="evenodd" fill-opacity="0.5">
        <g id="Card-list" transform="translate(-614.000000, -103.000000)" fill="#0096EA">
            <g id="add-to-cart-icon">
                <path d="M627,104 L627,106 L629,106 L629,108 L627,108 L627,110 L625,110 L625,108 L623,108 L623,106 L625,106 L625,104 L627,104 Z M616,113 L616,105 L614,105 L614,103 L617,103 C617.6,103 618,103.4 618,104 L618,112 L628,112 L628,114 L617,114 C616.4,114 616,113.6 616,113 Z M618.414214,115.585786 C619.195262,116.366835 619.195262,117.633165 618.414214,118.414214 C617.633165,119.195262 616.366835,119.195262 615.585786,118.414214 C614.804738,117.633165 614.804738,116.366835 615.585786,115.585786 C616.366835,114.804738 617.633165,114.804738 618.414214,115.585786 Z M628.41421,115.585786 C629.19526,116.366835 629.19526,117.633165 628.41421,118.414214 C627.63316,119.195262 626.36684,119.195262 625.58579,118.414214 C624.80474,117.633165 624.80474,116.366835 625.58579,115.585786 C626.36684,114.804738 627.63316,114.804738 628.41421,115.585786 Z"></path>
            </g>
        </g>
    </g>
</svg>