<?xml version="1.0" encoding="UTF-8"?>
<svg width="44px" height="63px" viewBox="0 0 44 63" version="1.1" xmlns="http://www.w3.org/2000/svg" xmlns:xlink="http://www.w3.org/1999/xlink">
    <!-- Generator: Sketch 52.5 (67469) - http://www.bohemiancoding.com/sketch -->
    <title>thin-0416-calculator</title>
    <desc>Created with Sketch.</desc>
    <g id="Main" stroke="none" stroke-width="1" fill="none" fill-rule="evenodd">
        <g id="Main-Copy-5" transform="translate(-549.000000, -1264.000000)" fill="#82CCF5" fill-rule="nonzero">
            <g id="Drivers" transform="translate(444.000000, 672.000000)">
                <g id="Драйвер-Расчет-стоимости-отопления" transform="translate(105.000000, 592.000000)">
                    <g id="thin-0416-calculator">
                        <path d="M39.0823529,0 L5.17647059,0 C2.37341176,0 0.258823529,2.11458824 0.258823529,4.91764706 L0.258823529,57.2 C0.258823529,60.0030588 2.37341176,62.1176471 5.17647059,62.1176471 L39.0823529,62.1176471 C41.448,62.1176471 44,60.1376471 44,56.9411765 L44,4.91764706 C44,2.11458824 41.8854118,0 39.0823529,0 Z M41.4117647,56.9411765 C41.4117647,58.5381176 40.2004706,59.5294118 39.0823529,59.5294118 L5.17647059,59.5294118 C3.828,59.5294118 2.84705882,58.5510588 2.84705882,57.2025882 L2.84705882,4.91764706 C2.84705882,3.56917647 3.828,2.58823529 5.17647059,2.58823529 L39.0823529,2.58823529 C40.4308235,2.58823529 41.4117647,3.56917647 41.4117647,4.91764706 L41.4117647,56.9411765 Z" id="Shape"></path>
                        <path d="M11.6470588,25.8823529 C9.50658824,25.8823529 7.76470588,27.6242353 7.76470588,29.7647059 C7.76470588,31.9051765 9.50658824,33.6470588 11.6470588,33.6470588 C13.7875294,33.6470588 15.5294118,31.9051765 15.5294118,29.7647059 C15.5294118,27.6242353 13.7875294,25.8823529 11.6470588,25.8823529 Z M11.6470588,31.0588235 C10.9327059,31.0588235 10.3529412,30.4790588 10.3529412,29.7647059 C10.3529412,29.0503529 10.9327059,28.4705882 11.6470588,28.4705882 C12.3614118,28.4705882 12.9411765,29.0503529 12.9411765,29.7647059 C12.9411765,30.4790588 12.3614118,31.0588235 11.6470588,31.0588235 Z" id="Shape"></path>
                        <path d="M22,25.8823529 C19.8595294,25.8823529 18.1176471,27.6242353 18.1176471,29.7647059 C18.1176471,31.9051765 19.8595294,33.6470588 22,33.6470588 C24.1404706,33.6470588 25.8823529,31.9051765 25.8823529,29.7647059 C25.8823529,27.6242353 24.1404706,25.8823529 22,25.8823529 Z M22,31.0588235 C21.2856471,31.0588235 20.7058824,30.4790588 20.7058824,29.7647059 C20.7058824,29.0503529 21.2856471,28.4705882 22,28.4705882 C22.7143529,28.4705882 23.2941176,29.0503529 23.2941176,29.7647059 C23.2941176,30.4790588 22.7143529,31.0588235 22,31.0588235 Z" id="Shape"></path>
                        <path d="M32.3529412,25.8823529 C30.2124706,25.8823529 28.4705882,27.6242353 28.4705882,29.7647059 C28.4705882,31.9051765 30.2124706,33.6470588 32.3529412,33.6470588 C34.4934118,33.6470588 36.2352941,31.9051765 36.2352941,29.7647059 C36.2352941,27.6242353 34.4934118,25.8823529 32.3529412,25.8823529 Z M32.3529412,31.0588235 C31.6411765,31.0588235 31.0588235,30.4790588 31.0588235,29.7647059 C31.0588235,29.0503529 31.6411765,28.4705882 32.3529412,28.4705882 C33.0647059,28.4705882 33.6470588,29.0503529 33.6470588,29.7647059 C33.6470588,30.4790588 33.0647059,31.0588235 32.3529412,31.0588235 Z" id="Shape"></path>
                        <path d="M11.6470588,36.2352941 C9.50658824,36.2352941 7.76470588,37.9771765 7.76470588,40.1176471 C7.76470588,42.2581176 9.50658824,44 11.6470588,44 C13.7875294,44 15.5294118,42.2581176 15.5294118,40.1176471 C15.5294118,37.9771765 13.7875294,36.2352941 11.6470588,36.2352941 Z M11.6470588,41.4117647 C10.9327059,41.4117647 10.3529412,40.8294118 10.3529412,40.1176471 C10.3529412,39.4058824 10.9327059,38.8235294 11.6470588,38.8235294 C12.3614118,38.8235294 12.9411765,39.4032941 12.9411765,40.1176471 C12.9411765,40.832 12.3614118,41.4117647 11.6470588,41.4117647 Z" id="Shape"></path>
                        <path d="M22,36.2352941 C19.8595294,36.2352941 18.1176471,37.9771765 18.1176471,40.1176471 C18.1176471,42.2581176 19.8595294,44 22,44 C24.1404706,44 25.8823529,42.2581176 25.8823529,40.1176471 C25.8823529,37.9771765 24.1404706,36.2352941 22,36.2352941 Z M22,41.4117647 C21.2856471,41.4117647 20.7058824,40.8294118 20.7058824,40.1176471 C20.7058824,39.4058824 21.2856471,38.8235294 22,38.8235294 C22.7143529,38.8235294 23.2941176,39.4058824 23.2941176,40.1176471 C23.2941176,40.8294118 22.7143529,41.4117647 22,41.4117647 Z" id="Shape"></path>
                        <path d="M32.3529412,36.2352941 C30.2124706,36.2352941 28.4705882,37.9771765 28.4705882,40.1176471 C28.4705882,42.2581176 30.2124706,44 32.3529412,44 C34.4934118,44 36.2352941,42.2581176 36.2352941,40.1176471 C36.2352941,37.9771765 34.4934118,36.2352941 32.3529412,36.2352941 Z M32.3529412,41.4117647 C31.6411765,41.4117647 31.0588235,40.8294118 31.0588235,40.1176471 C31.0588235,39.4058824 31.6411765,38.8235294 32.3529412,38.8235294 C33.0647059,38.8235294 33.6470588,39.4058824 33.6470588,40.1176471 C33.6470588,40.8294118 33.0647059,41.4117647 32.3529412,41.4117647 Z" id="Shape"></path>
                        <path d="M11.6470588,46.5882353 C9.50658824,46.5882353 7.76470588,48.3301176 7.76470588,50.4705882 C7.76470588,52.6110588 9.50658824,54.3529412 11.6470588,54.3529412 C13.7875294,54.3529412 15.5294118,52.6110588 15.5294118,50.4705882 C15.5294118,48.3301176 13.7875294,46.5882353 11.6470588,46.5882353 Z M11.6470588,51.7647059 C10.9327059,51.7647059 10.3529412,51.1823529 10.3529412,50.4705882 C10.3529412,49.7588235 10.9327059,49.1764706 11.6470588,49.1764706 C12.3614118,49.1764706 12.9411765,49.7562353 12.9411765,50.4705882 C12.9411765,51.1849412 12.3614118,51.7647059 11.6470588,51.7647059 Z" id="Shape"></path>
                        <path d="M22,46.5882353 C19.8595294,46.5882353 18.1176471,48.3301176 18.1176471,50.4705882 C18.1176471,52.6110588 19.8595294,54.3529412 22,54.3529412 C24.1404706,54.3529412 25.8823529,52.6110588 25.8823529,50.4705882 C25.8823529,48.3301176 24.1404706,46.5882353 22,46.5882353 Z M22,51.7647059 C21.2856471,51.7647059 20.7058824,51.1823529 20.7058824,50.4705882 C20.7058824,49.7588235 21.2856471,49.1764706 22,49.1764706 C22.7143529,49.1764706 23.2941176,49.7588235 23.2941176,50.4705882 C23.2941176,51.1823529 22.7143529,51.7647059 22,51.7647059 Z" id="Shape"></path>
                        <path d="M32.3529412,46.5882353 C30.2124706,46.5882353 28.4705882,48.3301176 28.4705882,50.4705882 C28.4705882,52.6110588 30.2124706,54.3529412 32.3529412,54.3529412 C34.4934118,54.3529412 36.2352941,52.6110588 36.2352941,50.4705882 C36.2352941,48.3301176 34.4934118,46.5882353 32.3529412,46.5882353 Z M32.3529412,51.7647059 C31.6411765,51.7647059 31.0588235,51.1823529 31.0588235,50.4705882 C31.0588235,49.7588235 31.6411765,49.1764706 32.3529412,49.1764706 C33.0647059,49.1764706 33.6470588,49.7588235 33.6470588,50.4705882 C33.6470588,51.1823529 33.0647059,51.7647059 32.3529412,51.7647059 Z" id="Shape"></path>
                        <path d="M34.9411765,7.76470588 L9.05882353,7.76470588 C8.34447059,7.76470588 7.76470588,8.34188235 7.76470588,9.05882353 L7.76470588,19.4117647 C7.76470588,20.1261176 8.34447059,20.7058824 9.05882353,20.7058824 L34.9411765,20.7058824 C35.6555294,20.7058824 36.2352941,20.1261176 36.2352941,19.4117647 L36.2352941,9.05882353 C36.2352941,8.34188235 35.6555294,7.76470588 34.9411765,7.76470588 Z M33.6470588,18.1176471 L10.3529412,18.1176471 L10.3529412,10.3529412 L33.6470588,10.3529412 L33.6470588,18.1176471 Z" id="Shape"></path>
                    </g>
                </g>
            </g>
        </g>
    </g>
</svg>