<?xml version="1.0" encoding="UTF-8"?>
<svg width="16px" height="16px" viewBox="0 0 16 16" version="1.1" xmlns="http://www.w3.org/2000/svg" xmlns:xlink="http://www.w3.org/1999/xlink">
    <!-- Generator: Sketch 52.5 (67469) - http://www.bohemiancoding.com/sketch -->
    <title>circle-bold-remove copy</title>
    <desc>Created with Sketch.</desc>
    <g id="UI" stroke="none" stroke-width="1" fill="none" fill-rule="evenodd">
        <g id="UI-Header" transform="translate(-1017.000000, -714.000000)" fill="#A7ABBD" fill-rule="nonzero">
            <g id="CheckOut" transform="translate(606.000000, 457.000000)">
                <g id="circle-bold-remove-copy" transform="translate(411.000000, 257.000000)">
                    <polygon id="Shape" points="10.1 4.5 8 6.6 5.9 4.5 4.5 5.9 6.6 8 4.5 10.1 5.9 11.5 8 9.4 10.1 11.5 11.5 10.1 9.4 8 11.5 5.9"></polygon>
                    <path d="M8,0 C3.6,0 0,3.6 0,8 C0,12.4 3.6,16 8,16 C12.4,16 16,12.4 16,8 C16,3.6 12.4,0 8,0 Z M8,14 C4.7,14 2,11.3 2,8 C2,4.7 4.7,2 8,2 C11.3,2 14,4.7 14,8 C14,11.3 11.3,14 8,14 Z" id="Shape"></path>
                </g>
            </g>
        </g>
    </g>
</svg>