<?xml version="1.0" encoding="UTF-8"?>
<svg width="33px" height="52px" viewBox="0 0 33 52" version="1.1" xmlns="http://www.w3.org/2000/svg" xmlns:xlink="http://www.w3.org/1999/xlink">
    <!-- Generator: Sketch 52.5 (67469) - http://www.bohemiancoding.com/sketch -->
    <title>pipes (2)</title>
    <desc>Created with Sketch.</desc>
    <g id="Main" stroke="none" stroke-width="1" fill="none" fill-rule="evenodd">
        <g id="Main-Copy-5" transform="translate(-442.000000, -2033.000000)" fill="#86939E" fill-rule="nonzero">
            <g id="Популярные-категории" transform="translate(44.000000, 1646.000000)">
                <g id="Отводы" transform="translate(337.333333, 304.000000)">
                    <g id="pipes-(2)" transform="translate(61.000000, 83.000000)">
                        <path d="M31.1829401,5.31361514 L26.6605426,0.791217666 C25.7683785,-0.100946372 24.3829905,-0.256201893 23.3146751,0.415192429 C22.2001262,1.1158612 20.9868517,1.97531861 19.7216909,2.99305994 L18.5972492,1.94887066 C17.8718486,1.27666877 16.737918,1.31825868 16.0666246,2.04446688 L13.814511,4.46849211 C13.1420063,5.19419558 13.1835962,6.32610726 13.9075836,6.99871293 L14.6991041,7.73370347 C8.11326183,15.0392934 3.72209464,25.4711924 3.52030284,37.4370726 L1.90415142,37.4370726 C0.889135647,37.4370726 0.0667255521,38.2594826 0.0667255521,39.2744984 L0.0667255521,42.4909527 C0.0667255521,43.5059685 0.889135647,44.3283785 1.90415142,44.3283785 L3.51242902,44.3283785 L3.51242902,49.3822587 C3.51242902,50.3972744 4.33483912,51.2196845 5.34985489,51.2196845 L15.4576151,51.2196845 C16.4719243,51.2196845 17.295041,50.3970726 17.295041,49.3822587 L17.295041,44.3283785 L18.9033186,44.3283785 C19.9176278,44.3283785 20.7407445,43.5057666 20.7407445,42.4909527 L20.7407445,39.2744984 C20.7407445,38.2596845 19.9176278,37.4370726 18.9033186,37.4370726 L17.3027129,37.4370726 C17.4573628,28.6290978 19.9790032,21.1583596 23.830612,16.2129968 L24.6064858,16.9335521 C25.3324921,17.6064606 26.4656151,17.564265 27.1371104,16.8379558 L29.389123,14.4137287 C30.0620315,13.6876215 30.0209464,12.5545994 29.2945363,11.8830032 L28.7259054,11.3549527 L31.0845174,9.22175394 C32.2292492,8.18685174 32.2740694,6.40474448 31.1829401,5.31361514 Z M15.5720883,49.3822587 C15.5720883,49.4453502 15.5206057,49.4968328 15.4575142,49.4968328 L5.34975394,49.4968328 C5.28625868,49.4968328 5.23517981,49.4457539 5.23517981,49.3822587 L5.23517981,44.3283785 L15.5720883,44.3283785 L15.5720883,49.3822587 Z M19.0177918,39.2744984 L19.0177918,42.4909527 C19.0177918,42.5540442 18.9663091,42.6055268 18.9032177,42.6055268 L16.4335647,42.6055268 L4.37380442,42.6055268 L1.90415142,42.6055268 C1.84065615,42.6055268 1.78957729,42.5544479 1.78957729,42.4909527 L1.78957729,39.2744984 C1.78957729,39.2110032 1.84065615,39.1599243 1.90415142,39.1599243 L4.36683912,39.1599243 C4.36916088,39.1599243 4.3713817,39.1602271 4.37370347,39.1602271 L16.4334637,39.1602271 C16.4357855,39.1602271 16.4380063,39.1599243 16.4403281,39.1599243 L18.9033186,39.1599243 C18.9662082,39.1599243 19.0177918,39.2114069 19.0177918,39.2744984 Z M15.5792555,37.4370726 L5.2425489,37.4370726 C5.44353312,25.9244416 9.66016404,15.9053123 15.9613375,8.9057918 L22.5620189,15.0350536 C18.4183722,20.2896151 15.7363281,28.1842271 15.5792555,37.4370726 Z M28.126183,13.2418423 L25.8734637,15.666877 C25.8478233,15.6946372 25.8061325,15.6961514 25.7782713,15.670612 L24.329388,14.3251987 L16.5000883,7.05494006 L15.0800757,5.7364795 C15.053123,5.71144479 15.0515079,5.66844164 15.0774511,5.6404795 L17.3301703,3.21554574 C17.3554069,3.18818927 17.3981073,3.18667508 17.4254637,3.21201262 L19.0971356,4.76446688 L21.519142,7.01375394 L28.1233565,13.1468517 C28.1508139,13.1718864 28.1523281,13.2136782 28.126183,13.2418423 Z M29.9289842,7.94377287 L27.4588265,10.177817 L22.6496404,5.71215142 L20.997653,4.1780694 C22.1381451,3.27197476 23.2291735,2.50387382 24.2313691,1.87376656 C24.619306,1.62998107 25.1186877,1.68590536 25.4422208,2.00943849 L29.9646183,6.53183596 C30.3590158,6.92613249 30.3427634,7.56976656 29.9289842,7.94377287 Z" id="Shape"></path>
                    </g>
                </g>
            </g>
        </g>
    </g>
</svg>