<?xml version="1.0" encoding="UTF-8"?>
<svg width="12px" height="21px" viewBox="0 0 12 21" version="1.1" xmlns="http://www.w3.org/2000/svg" xmlns:xlink="http://www.w3.org/1999/xlink">
    <!-- Generator: Sketch 52.5 (67469) - http://www.bohemiancoding.com/sketch -->
    <title>facebook-logo</title>
    <desc>Created with Sketch.</desc>
    <g id="Login-/-SignUp" stroke="none" stroke-width="1" fill="none" fill-rule="evenodd">
        <g id="Вход-в-аккаунт" transform="translate(-661.000000, -620.000000)" fill="#8A94A6">
            <g id="Вход">
                <g id="Or" transform="translate(389.000000, 580.000000)">
                    <g id="social" transform="translate(252.000000, 25.000000)">
                        <path d="M30.8143983,15.0040302 L28.1189071,15 C25.0909728,15 23.1336133,16.9960207 23.1336133,20.0847612 L23.1336133,22.429528 L20.4232567,22.429528 C20.190006,22.429528 20,22.617335 20,22.8502802 L20,26.2477337 C20,26.4796041 20.190006,26.6684859 20.4232567,26.6684859 L23.1336133,26.6684859 L23.1336133,35.2401708 C23.1336133,35.4720413 23.3236193,35.6609231 23.5579511,35.6609231 L27.0926582,35.6609231 C27.32699,35.6609231 27.516996,35.4720413 27.516996,35.2401708 L27.516996,26.6684859 L30.6854752,26.6684859 C30.919807,26.6684859 31.1090022,26.4796041 31.1090022,26.2477337 L31.1108942,22.8502802 C31.1108942,22.7390469 31.0654873,22.6321124 30.9862956,22.5523146 C30.9071039,22.4735915 30.7995329,22.429528 30.6865564,22.429528 L27.516996,22.429528 L27.516996,20.4418364 C27.516996,19.4866805 27.7461925,19.0017138 28.9973134,19.0017138 L30.8133171,19.0006391 C31.0476489,19.0006391 31.2365739,18.8117573 31.2365739,18.5798869 L31.2365739,15.4261258 C31.2365739,15.1929119 31.0476489,15.0051049 30.8143983,15.0040302 L30.8143983,15.0040302 Z" id="facebook-logo"></path>
                    </g>
                </g>
            </g>
        </g>
    </g>
</svg>