<?xml version="1.0" encoding="UTF-8"?>
<svg width="14px" height="14px" viewBox="0 0 14 14" version="1.1" xmlns="http://www.w3.org/2000/svg" xmlns:xlink="http://www.w3.org/1999/xlink">
    <!-- Generator: Sketch 52.5 (67469) - http://www.bohemiancoding.com/sketch -->
    <title>Open Div</title>
    <desc>Created with Sketch.</desc>
    <defs>
        <path d="M6,6 L6,0.5 C6,0.223857625 6.22385763,5.07265313e-17 6.5,0 L7.5,0 C7.77614237,-5.07265313e-17 8,0.223857625 8,0.5 L8,6 L13.5,6 C13.7761424,6 14,6.22385763 14,6.5 L14,7.5 C14,7.77614237 13.7761424,8 13.5,8 L8,8 L8,13.5 C8,13.7761424 7.77614237,14 7.5,14 L6.5,14 C6.22385763,14 6,13.7761424 6,13.5 L6,8 L0.5,8 C0.223857625,8 3.38176876e-17,7.77614237 0,7.5 L0,6.5 C-3.38176876e-17,6.22385763 0.223857625,6 0.5,6 L6,6 Z" id="path-1"></path>
    </defs>
    <g id="UI" stroke="none" stroke-width="1" fill="none" fill-rule="evenodd">
        <g transform="translate(-53.000000, -1540.000000)" id="Open-Div">
            <g transform="translate(53.000000, 1540.000000)">
                <mask id="mask-2" fill="white">
                    <use xlink:href="#path-1"></use>
                </mask>
                <g id="ic_add"></g>
                <g id="icon-color" mask="url(#mask-2)" fill="#82CCF5">
                    <g transform="translate(-8.000000, -8.000000)" id="Icon">
                        <path d="M8.8326269,0.5 L21.1673731,0.5 C24.064809,0.5 25.1154893,0.801683236 26.1747485,1.36818129 C27.2340078,1.93467934 28.0653207,2.7659922 28.6318187,3.82525146 C29.1983168,4.88451072 29.5,5.935191 29.5,8.8326269 L29.5,21.1673731 C29.5,24.064809 29.1983168,25.1154893 28.6318187,26.1747485 C28.0653207,27.2340078 27.2340078,28.0653207 26.1747485,28.6318187 C25.1154893,29.1983168 24.064809,29.5 21.1673731,29.5 L8.8326269,29.5 C5.935191,29.5 4.88451072,29.1983168 3.82525146,28.6318187 C2.7659922,28.0653207 1.93467934,27.2340078 1.36818129,26.1747485 C0.801683236,25.1154893 0.5,24.064809 0.5,21.1673731 L0.5,8.8326269 C0.5,5.935191 0.801683236,4.88451072 1.36818129,3.82525146 C1.93467934,2.7659922 2.7659922,1.93467934 3.82525146,1.36818129 C4.88451072,0.801683236 5.935191,0.5 8.8326269,0.5 Z"></path>
                    </g>
                </g>
            </g>
        </g>
    </g>
</svg>