<?xml version="1.0" encoding="UTF-8"?>
<svg width="71px" height="36px" viewBox="0 0 71 36" version="1.1" xmlns="http://www.w3.org/2000/svg" xmlns:xlink="http://www.w3.org/1999/xlink">
    <!-- Generator: Sketch 52.5 (67469) - http://www.bohemiancoding.com/sketch -->
    <title>reserved-1</title>
    <desc>Created with Sketch.</desc>
    <g id="Main" stroke="none" stroke-width="1" fill="none" fill-rule="evenodd">
        <g id="Main-Copy-5" transform="translate(-532.000000, -938.000000)" fill-rule="nonzero">
            <g id="Drivers" transform="translate(444.000000, 672.000000)">
                <g id="Драйвер-Резервирование-товара" transform="translate(88.000000, 264.000000)">
                    <g id="reserved-1" transform="translate(0.000000, 2.000000)">
                        <g id="XMLID_237_" fill="#82CCF5">
                            <path d="M2.38,35.96 C2.161,35.96 1.93908,35.91036 1.72592,35.80524 C1.00468,35.44316 0.71268,34.56716 1.07184,33.84592 L12.746,10.50052 C12.76352,10.46256 12.78396,10.42752 12.8044,10.39248 C12.8482,10.32532 12.892,10.264 12.9358,10.20852 C13.1256,9.98076 13.38256,9.80848 13.68332,9.72964 C13.70668,9.7238 28.3368533,6.79698667 57.57384,0.9492 C58.20748,0.80612 58.87032,1.13608 59.16524,1.72884 L70.84524,25.08884 C71.04672,25.49764 71.04964,25.97652 70.85108,26.3824 C70.65252,26.78828 70.27292,27.0832 69.82324,27.17372 L26.02324,35.93372 C25.37792,36.06804 24.72676,35.74392 24.43184,35.15408 L14.06,14.40456 L3.68524,35.15116 C3.42828,35.66216 2.91436,35.96 2.38,35.96 Z M16.2208,12.19704 L26.54592,32.84728 L67.37628,24.68004 L57.05116,4.0298 L16.2208,12.19704 Z" id="Shape"></path>
                        </g>
                        <g id="XMLID_238_" transform="translate(24.280000, 9.680000)" fill="#0096EA" fill-opacity="0.49">
                            <path d="M1.45708,8.76 C0.77672,8.76 0.16936,8.28112 0.0292,7.58616 C-0.1314,6.79484 0.38252,6.02688 1.17676,5.8692 L30.37676,0.0292 C31.1272,-0.1314 31.93312,0.3796 32.09372,1.17676 C32.25432,1.96808 31.7404,2.73604 30.94616,2.89372 L1.74616,8.73372 C1.6498,8.75124 1.55344,8.76 1.45708,8.76 Z" id="Shape"></path>
                        </g>
                        <g id="XMLID_242_" transform="translate(27.200000, 18.440000)" fill="#0096EA" fill-opacity="0.49">
                            <path d="M1.45708,5.84 C0.77672,5.84 0.16936,5.36112 0.0292,4.66616 C-0.1314,3.87484 0.38252,3.10688 1.17676,2.9492 L15.77676,0.0292 C16.53012,-0.1314 17.33312,0.3796 17.49372,1.17676 C17.65432,1.96808 17.1404,2.73604 16.34616,2.89372 L1.74616,5.81372 C1.6498,5.83124 1.55344,5.84 1.45708,5.84 Z" id="Shape"></path>
                        </g>
                        <g id="XMLID_239_" transform="translate(0.920000, 28.200000)" fill="#82CCF5">
                            <path d="M1.45708,7.76 C0.77672,7.76 0.16936,7.28112 0.0292,6.58616 C-0.1314,5.79484 0.38252,5.02688 1.17676,4.8692 L22.411,0.62352 C23.16436,0.45708 23.96736,0.97392 24.12796,1.77108 C24.28856,2.5624 23.77464,3.33036 22.9804,3.48804 L1.74616,7.7308 C1.6498,7.75124 1.55344,7.76 1.45708,7.76 Z" id="Shape"></path>
                        </g>
                    </g>
                </g>
            </g>
        </g>
    </g>
</svg>