<?xml version="1.0" encoding="UTF-8"?>
<svg width="55px" height="53px" viewBox="0 0 55 53" version="1.1" xmlns="http://www.w3.org/2000/svg" xmlns:xlink="http://www.w3.org/1999/xlink">
    <!-- Generator: Sketch 52.5 (67469) - http://www.bohemiancoding.com/sketch -->
    <title>thin-0489-storehouse-storage</title>
    <desc>Created with Sketch.</desc>
    <g id="Main" stroke="none" stroke-width="1" fill="none" fill-rule="evenodd">
        <g id="Main-Copy-5" transform="translate(-544.000000, -1088.000000)" fill="#82CCF5" fill-rule="nonzero">
            <g id="Drivers" transform="translate(444.000000, 672.000000)">
                <g id="Драйвер-Предварительный-сбор-заказа" transform="translate(100.000000, 416.000000)">
                    <g id="thin-0489-storehouse-storage">
                        <path d="M54.1429533,7.78844 C53.8171089,7.69599111 45.1026644,5.21654222 27.99962,0.350093333 C27.7972933,0.29326 27.5790533,0.29326 27.379,0.350093333 L1.23566667,7.78844 C0.7469,7.92711333 0.408173333,8.37268667 0.408173333,8.87964 L0.408173333,51.15 C0.408173333,51.77744 0.9174,52.2866667 1.54484,52.2866667 L6.09150667,52.2866667 C6.71894667,52.2866667 7.22817333,51.77744 7.22817333,51.15 L7.22817333,18.1866667 L48.1481733,18.1866667 L48.1481733,51.15 C48.1481733,51.77744 48.6574,52.2866667 49.28484,52.2866667 L53.8315067,52.2866667 C54.4589467,52.2866667 54.9681733,51.77744 54.9681733,51.15 L54.9681733,8.87964 C54.9681733,8.37268667 54.63172,7.92711333 54.1429533,7.78844 Z M52.69484,50.0133333 L50.4215067,50.0133333 L50.4215067,17.05 C50.4215067,16.42256 49.91228,15.9133333 49.28484,15.9133333 L6.09150667,15.9133333 C5.46406667,15.9133333 4.95484,16.42256 4.95484,17.05 L4.95484,50.0133333 L2.68150667,50.0133333 L2.68150667,11 L2.68150667,9.73896 L27.6881733,2.6257 L52.69484,9.73896 L52.69484,50.0133333 Z" id="Shape"></path>
                        <path d="M42.4489267,31.8266667 L34.5081733,31.8266667 L34.5081733,23.87 C34.5081733,23.24256 33.9989467,22.7333333 33.3715067,22.7333333 L24.2781733,22.7333333 C23.6507333,22.7333333 23.1415067,23.24256 23.1415067,23.87 L23.1415067,32.9633333 L23.1415067,40.92 L15.18484,40.92 C14.5574,40.92 14.0481733,41.4292267 14.0481733,42.0566667 L14.0481733,51.15 C14.0481733,51.77744 14.5574,52.2866667 15.18484,52.2866667 L24.2781733,52.2866667 L33.3555933,52.2866667 L33.3715067,52.2866667 L42.4489267,52.2866667 C43.0763667,52.2866667 43.5855933,51.77744 43.5855933,51.15 L43.5855933,42.0566667 L43.5855933,32.9633333 C43.5855933,32.33362 43.07864,31.8266667 42.4489267,31.8266667 Z M41.31226,40.92 L34.5081733,40.92 L34.5081733,34.1 L41.31226,34.1 L41.31226,40.92 Z M25.41484,34.1 L32.2189267,34.1 L32.2189267,40.92 L25.41484,40.92 L25.41484,34.1 Z M25.41484,25.0066667 L32.23484,25.0066667 L32.23484,31.8266667 L25.41484,31.8266667 L25.41484,25.0066667 Z M16.3215067,43.1933333 L23.1415067,43.1933333 L23.1415067,50.0133333 L16.3215067,50.0133333 L16.3215067,43.1933333 Z M25.41484,43.1933333 L32.2189267,43.1933333 L32.2189267,50.0133333 L25.41484,50.0133333 L25.41484,43.1933333 Z M41.31226,50.0133333 L34.5081733,50.0133333 L34.5081733,43.1933333 L41.31226,43.1933333 L41.31226,50.0133333 Z" id="Shape"></path>
                        <path d="M23.1165,12.5033333 C23.1165,13.1307733 23.6257267,13.64 24.2531667,13.64 L31.0845333,13.64 C31.7119733,13.64 32.2212,13.1307733 32.2212,12.5033333 C32.2212,11.8758933 31.7119733,11.3666667 31.08226,11.3666667 L24.2508933,11.3666667 C23.6234533,11.3666667 23.1165,11.8758933 23.1165,12.5033333 Z" id="Shape"></path>
                        <path d="M19.91792,11.3666667 L13.0865533,11.3666667 C12.4591133,11.3666667 11.9498867,11.8758933 11.9498867,12.5033333 C11.9498867,13.1307733 12.4591133,13.64 13.0865533,13.64 L19.91792,13.64 C20.54536,13.64 21.0545867,13.1307733 21.0545867,12.5033333 C21.0545867,11.8758933 20.5476333,11.3666667 19.91792,11.3666667 Z" id="Shape"></path>
                        <path d="M35.4175067,13.64 L42.2488733,13.64 C42.8763133,13.64 43.38554,13.1307733 43.38554,12.5033333 C43.38554,11.8758933 42.8763133,11.3666667 42.2488733,11.3666667 L35.4175067,11.3666667 C34.7900667,11.3666667 34.28084,11.8758933 34.28084,12.5033333 C34.28084,13.1307733 34.7877933,13.64 35.4175067,13.64 Z" id="Shape"></path>
                    </g>
                </g>
            </g>
        </g>
    </g>
</svg>