<?xml version="1.0" encoding="UTF-8"?>
<svg width="47px" height="76px" viewBox="0 0 47 76" version="1.1" xmlns="http://www.w3.org/2000/svg" xmlns:xlink="http://www.w3.org/1999/xlink">
    <!-- Generator: Sketch 52.5 (67469) - http://www.bohemiancoding.com/sketch -->
    <title>cut</title>
    <desc>Created with Sketch.</desc>
    <g id="Main" stroke="none" stroke-width="1" fill="none" fill-rule="evenodd">
        <g id="Main-Copy-5" transform="translate(-549.000000, -1420.000000)" fill="#82CCF5" fill-rule="nonzero">
            <g id="Drivers" transform="translate(444.000000, 672.000000)">
                <g id="Драйвер-Резка-труб" transform="translate(105.000000, 748.000000)">
                    <g id="cut">
                        <g id="Group" transform="translate(21.933333, 0.000000)">
                            <path d="M1.56666667,7.83333333 C0.701866667,7.83333333 0,7.13146667 0,6.26666667 L0,1.56666667 C0,0.701866667 0.701866667,0 1.56666667,0 C2.43146667,0 3.13333333,0.701866667 3.13333333,1.56666667 L3.13333333,6.26666667 C3.13333333,7.13146667 2.43146667,7.83333333 1.56666667,7.83333333 Z" id="Shape"></path>
                            <path d="M1.56666667,61.5480667 C0.701866667,61.5480667 0,60.8462 0,59.9814 L0,51.0294667 C0,50.1646667 0.701866667,49.4628 1.56666667,49.4628 C2.43146667,49.4628 3.13333333,50.1646667 3.13333333,51.0294667 L3.13333333,59.9814 C3.13333333,60.8462 2.43146667,61.5480667 1.56666667,61.5480667 Z M1.56666667,43.6410667 C0.701866667,43.6410667 0,42.9392 0,42.0744 L0,33.1224667 C0,32.2576667 0.701866667,31.5558 1.56666667,31.5558 C2.43146667,31.5558 3.13333333,32.2576667 3.13333333,33.1224667 L3.13333333,42.0744 C3.13333333,42.9423333 2.43146667,43.6410667 1.56666667,43.6410667 Z M1.56666667,25.7372 C0.701866667,25.7372 0,25.0353333 0,24.1705333 L0,15.2186 C0,14.3538 0.701866667,13.6519333 1.56666667,13.6519333 C2.43146667,13.6519333 3.13333333,14.3538 3.13333333,15.2186 L3.13333333,24.1705333 C3.13333333,25.0353333 2.43146667,25.7372 1.56666667,25.7372 Z" id="Shape"></path>
                            <path d="M1.56666667,75.2 C0.701866667,75.2 0,74.4981333 0,73.6333333 L0,68.9333333 C0,68.0685333 0.701866667,67.3666667 1.56666667,67.3666667 C2.43146667,67.3666667 3.13333333,68.0685333 3.13333333,68.9333333 L3.13333333,73.6333333 C3.13333333,74.4981333 2.43146667,75.2 1.56666667,75.2 Z" id="Shape"></path>
                        </g>
                        <path d="M33.7397333,59.5333333 C33.1914,59.5333333 32.6587333,59.2450667 32.3704667,58.7312 L9.5974,17.9978667 C9.17753333,17.2427333 9.447,16.2870667 10.2021333,15.8640667 C10.9572667,15.4442 11.9129333,15.7136667 12.3359333,16.4656667 L35.109,57.199 C35.532,57.9541333 35.2594,58.9098 34.5074,59.3328 C34.263,59.4675333 33.9998,59.5333333 33.7397333,59.5333333 Z" id="Shape"></path>
                        <path d="M39.1666667,62.6666667 C34.8489333,62.6666667 31.3333333,59.1510667 31.3333333,54.8333333 C31.3333333,50.5156 34.8489333,47 39.1666667,47 C43.4844,47 47,50.5156 47,54.8333333 C47,59.1510667 43.4844,62.6666667 39.1666667,62.6666667 Z M39.1666667,50.1333333 C36.5754,50.1333333 34.4666667,52.2420667 34.4666667,54.8333333 C34.4666667,57.4246 36.5754,59.5333333 39.1666667,59.5333333 C41.7579333,59.5333333 43.8666667,57.4246 43.8666667,54.8333333 C43.8666667,52.2420667 41.7579333,50.1333333 39.1666667,50.1333333 Z" id="Shape"></path>
                        <path d="M13.2602667,59.5333333 C13.0002,59.5333333 12.737,59.4675333 12.4957333,59.3359333 C11.7406,58.9129333 11.4711333,57.9604 11.8941333,57.2021333 L34.6672,16.4688 C35.0902,15.7168 36.0396,15.4410667 36.801,15.8672 C37.5561333,16.2902 37.8256,17.2427333 37.4026,18.001 L14.6295333,58.7343333 C14.3412667,59.2450667 13.8086,59.5333333 13.2602667,59.5333333 Z" id="Shape"></path>
                        <path d="M7.83333333,62.6666667 C3.5156,62.6666667 0,59.1510667 0,54.8333333 C0,50.5156 3.5156,47 7.83333333,47 C12.1510667,47 15.6666667,50.5156 15.6666667,54.8333333 C15.6666667,59.1510667 12.1510667,62.6666667 7.83333333,62.6666667 Z M7.83333333,50.1333333 C5.24206667,50.1333333 3.13333333,52.2420667 3.13333333,54.8333333 C3.13333333,57.4246 5.24206667,59.5333333 7.83333333,59.5333333 C10.4246,59.5333333 12.5333333,57.4246 12.5333333,54.8333333 C12.5333333,52.2420667 10.4246,50.1333333 7.83333333,50.1333333 Z" id="Shape"></path>
                    </g>
                </g>
            </g>
        </g>
    </g>
</svg>