<?xml version="1.0" encoding="UTF-8"?>
<svg width="60px" height="48px" viewBox="0 0 60 48" version="1.1" xmlns="http://www.w3.org/2000/svg" xmlns:xlink="http://www.w3.org/1999/xlink">
    <!-- Generator: Sketch 52.5 (67469) - http://www.bohemiancoding.com/sketch -->
    <title>Combined-Shape</title>
    <desc>Created with Sketch.</desc>
    <g id="Main" stroke="none" stroke-width="1" fill="none" fill-rule="evenodd">
        <g id="Main-Copy-5" transform="translate(-543.000000, -780.000000)" fill="#82CCF5" fill-rule="nonzero">
            <g id="Drivers" transform="translate(444.000000, 672.000000)">
                <g id="Драйвер-доставка" transform="translate(99.000000, 108.000000)">
                    <g id="delivery-free">
                        <path d="M45.0000015,12.5 L48.6353849,12.5 C50.582645,12.5 52.4186455,13.4075978 53.6011071,14.9547263 L58.7157223,21.6466698 C59.5487079,22.7365451 60,24.0701953 60,25.4419435 L60,33.75 C60,36.2255786 58.5470015,38.4370756 56.332301,39.4429376 C55.7037365,39.728416 54.9627583,39.4502897 54.6772799,38.8217253 C54.3918014,38.1931606 54.6699276,37.4521825 55.2984923,37.166704 C56.6282728,36.5627506 57.5,35.2359619 57.5,33.75 L57.5,25.4419435 C57.5,24.6188945 57.2292248,23.8187045 56.7294334,23.1647793 L51.6148183,16.4728358 C50.9053413,15.5445586 49.803741,15 48.6353849,15 L45.0000016,15 L45.0000023,26.2500093 C45.0000023,29.701789 42.201782,32.5000093 38.7500018,32.5000093 L9.13740778,32.4999969 C8.57860996,32.4999968 8.03115715,32.4473728 7.5,32.3466264 L7.5,33.75 C7.5,35.2311235 8.36601986,36.5543519 9.68925989,37.1611146 C10.3167883,37.4488635 10.592234,38.1908424 10.3044851,38.8183708 C10.0167362,39.4458991 9.2747573,39.7213449 8.64722891,39.433596 C6.44351798,38.4230991 5,36.2174871 5,33.75 L5,31.4611415 C2.49797263,30.1164757 0.713133135,27.5857971 0.426828381,24.5795744 C0.142417771,21.5932404 -3.27070915e-05,18.8583862 -3.27070916e-05,16.374015 C-3.27070916e-05,13.2324173 0.227748316,9.86893925 0.682631969,6.283034 C1.05019807,3.38548263 3.3755793,1.12887648 6.28285669,0.848441525 C12.1444825,0.283031163 17.341193,0 21.8750005,0 C26.4301278,0 32.2220084,0.285765488 39.2556059,0.856648987 C42.500666,1.12002212 45.0000011,3.83043113 45.0000011,7.08616362 L45.0000015,12.5 Z M36.25,37.5 C36.9403559,37.5 37.5,38.0596441 37.5,38.75 C37.5,39.4403559 36.9403559,40 36.25,40 L28.75,40 C28.0596441,40 27.5,39.4403559 27.5,38.75 C27.5,38.0596441 28.0596441,37.5 28.75,37.5 L36.25,37.5 Z M6.5228917,3.3368915 C4.77852535,3.5051525 3.38329632,4.85911638 3.16275671,6.59764675 C2.72067092,10.0826649 2.49996729,13.3416363 2.49996729,16.374015 C2.49996729,18.7751037 2.63833716,21.4316156 2.91556724,24.3425535 C3.22106225,27.5502754 5.91517193,29.9999961 9.13740859,29.9999969 L38.7500023,30.0000093 C40.8210701,30.0000093 42.5000023,28.3210771 42.5000023,26.2500094 L42.5000011,7.08616375 C42.5000011,5.13272337 41.0004013,3.50647912 39.0533628,3.34845512 C32.0817509,2.78260262 26.353974,2.5 21.8750005,2.5 C17.4272374,2.5 12.309197,2.7787465 6.5228917,3.3368915 Z M18.75,47.5 C15.2982204,47.5 12.5,44.7017796 12.5,41.25 C12.5,37.7982204 15.2982204,35 18.75,35 C22.2017796,35 25,37.7982204 25,41.25 C25,44.7017796 22.2017796,47.5 18.75,47.5 Z M18.75,45 C20.8210678,45 22.5,43.3210678 22.5,41.25 C22.5,39.1789323 20.8210678,37.5 18.75,37.5 C16.6789323,37.5 15,39.1789323 15,41.25 C15,43.3210678 16.6789323,45 18.75,45 Z M46.25,47.5 C42.7982204,47.5 40,44.7017796 40,41.25 C40,37.7982204 42.7982204,35 46.25,35 C49.7017796,35 52.5,37.7982204 52.5,41.25 C52.5,44.7017796 49.7017796,47.5 46.25,47.5 Z M46.25,45 C48.3210677,45 50,43.3210678 50,41.25 C50,39.1789323 48.3210677,37.5 46.25,37.5 C44.1789322,37.5 42.5,39.1789323 42.5,41.25 C42.5,43.3210678 44.1789322,45 46.25,45 Z M35,15 L36.25,15 C36.9403559,15 37.5,15.5596441 37.5,16.25 C37.5,16.9403559 36.9403559,17.5 36.25,17.5 L35,17.5 L35,20 L36.25,20 C36.9403559,20 37.5,20.5596441 37.5,21.25 C37.5,21.9403559 36.9403559,22.5 36.25,22.5 L33.75,22.5 C33.0596441,22.5 32.5,21.9403559 32.5,21.25 L32.5,11.25 C32.5,10.5596441 33.0596441,10 33.75,10 L36.25,10 C36.9403559,10 37.5,10.5596441 37.5,11.25 C37.5,11.9403559 36.9403559,12.5 36.25,12.5 L35,12.5 L35,15 Z M27.5,15 L28.75,15 C29.4403559,15 30,15.5596441 30,16.25 C30,16.9403559 29.4403559,17.5 28.75,17.5 L27.5,17.5 L27.5,20 L28.75,20 C29.4403559,20 30,20.5596441 30,21.25 C30,21.9403559 29.4403559,22.5 28.75,22.5 L26.25,22.5 C25.5596441,22.5 25,21.9403559 25,21.25 L25,11.25 C25,10.5596441 25.5596441,10 26.25,10 L28.75,10 C29.4403559,10 30,10.5596441 30,11.25 C30,11.9403559 29.4403559,12.5 28.75,12.5 L27.5,12.5 L27.5,15 Z M10,15 L11.25,15 C11.9403559,15 12.5,15.5596441 12.5,16.25 C12.5,16.9403559 11.9403559,17.5 11.25,17.5 L10,17.5 L10,21.25 C10,21.9403559 9.44035594,22.5 8.75,22.5 C8.05964406,22.5 7.5,21.9403559 7.5,21.25 L7.5,11.25 C7.5,10.5596441 8.05964406,10 8.75,10 L11.25,10 C11.9403559,10 12.5,10.5596441 12.5,11.25 C12.5,11.9403559 11.9403559,12.5 11.25,12.5 L10,12.5 L10,15 Z M15,11.25 C15,10.5596441 15.5596441,10 16.25,10 L18.75,10 C20.8210678,10 22.5,11.6789322 22.5,13.75 C22.5,15.6562005 21.0777313,17.2302123 19.2364981,17.4687311 L22.1338835,20.3661165 C22.6220389,20.8542719 22.6220389,21.6457281 22.1338835,22.1338835 C21.6457281,22.6220389 20.8542719,22.6220389 20.3661165,22.1338835 L17.5,19.267767 L17.5,21.25 C17.5,21.9403559 16.9403559,22.5 16.25,22.5 C15.5596441,22.5 15,21.9403559 15,21.25 L15,16.3377341 C14.9966365,16.2850491 14.9966811,16.2323839 15,16.1800563 L15,11.25 Z M17.5,15 L18.75,15 C19.4403559,15 20,14.4403559 20,13.75 C20,13.0596441 19.4403559,12.5 18.75,12.5 L17.5,12.5 L17.5,15 Z" id="Combined-Shape"></path>
                    </g>
                </g>
            </g>
        </g>
    </g>
</svg>