<?xml version="1.0" encoding="UTF-8"?>
<svg width="45px" height="52px" viewBox="0 0 45 52" version="1.1" xmlns="http://www.w3.org/2000/svg" xmlns:xlink="http://www.w3.org/1999/xlink">
    <!-- Generator: Sketch 52.5 (67469) - http://www.bohemiancoding.com/sketch -->
    <title>energy</title>
    <desc>Created with Sketch.</desc>
    <g id="Main" stroke="none" stroke-width="1" fill="none" fill-rule="evenodd">
        <g id="Main-Copy-5" transform="translate(-761.000000, -1832.000000)" fill-rule="nonzero">
            <g id="Популярные-категории" transform="translate(44.000000, 1646.000000)">
                <g id="Электротехника" transform="translate(674.666667, 92.000000)">
                    <g id="energy" transform="translate(43.000000, 94.000000)">
                        <path d="M4.21842744,15.5010751 L16.5504587,15.5010751 C18.8510608,15.4987099 20.7160622,13.6337084 20.7184274,11.3331063 L20.7184274,4.16796872 C20.7160622,1.86697248 18.851455,0.00236525229 16.5504587,0 L4.21842744,0 C1.91743119,0.00236525229 0.0528240183,1.86697248 0.0504587156,4.16796872 L0.0504587156,11.3327122 C0.0528240183,13.6337084 1.91743119,15.4987099 4.21842744,15.5010751 Z M1.77275657,4.16796872 C1.7743334,2.8178039 2.86826261,1.72387469 4.21842744,1.72229785 L16.5504587,1.72229785 C17.9002294,1.72387469 18.9945528,2.8178039 18.9961296,4.16796872 L18.9961296,11.3327122 C18.9945528,12.682877 17.9002294,13.7772004 16.5504587,13.778383 L4.21842744,13.778383 C2.86826261,13.7772004 1.77393922,12.682877 1.77275657,11.3327122 L1.77275657,4.16796872 Z" id="Shape" fill="#86939E"></path>
                        <path d="M12.1065439,12.0564794 L15.5515338,12.0564794 C16.0269495,12.0564794 16.4124856,11.6709433 16.4124856,11.1951333 L16.4124856,4.30594183 C16.4124856,3.83013188 16.0269495,3.44459571 15.5515338,3.44459571 L12.1065439,3.44459571 C11.6311281,3.44459571 11.2455921,3.83013188 11.2455921,4.30594183 L11.2455921,11.1951333 C11.2455921,11.670549 11.6311281,12.0564794 12.1065439,12.0564794 Z M12.9678899,5.16689366 L14.6901878,5.16689366 L14.6901878,10.3337873 L12.9678899,10.3337873 L12.9678899,5.16689366 Z" id="Shape" fill="#86939E"></path>
                        <path d="M5.21735238,12.0564794 L8.66194808,12.0564794 C9.13775803,12.0564794 9.5232942,11.6709433 9.5232942,11.1951333 L9.5232942,4.30594183 C9.5232942,3.83013188 9.13775803,3.44459571 8.66194808,3.44459571 L5.21735238,3.44459571 C4.74193661,3.44459571 4.35640054,3.83013188 4.35640054,4.30594183 L4.35640054,11.1951333 C4.35640054,11.670549 4.74193661,12.0564794 5.21735238,12.0564794 Z M6.07869839,5.16689366 L7.80099625,5.16689366 L7.80099625,10.3337873 L6.07869839,10.3337873 L6.07869839,5.16689366 Z" id="Shape" fill="#86939E"></path>
                        <path d="M43.1086941,14.639729 L40.5250501,14.639729 L40.5250501,6.88919151 C40.5250501,6.41377585 40.1395141,6.02823968 39.6640983,6.02823968 L36.2191084,6.02823968 C35.7436927,6.02823968 35.3581566,6.41377585 35.3581566,6.88919151 L35.3581566,14.639729 L31.9135608,14.639729 L31.9135608,6.88919151 C31.9135608,6.41377585 31.5280246,6.02823968 31.0522148,6.02823968 L27.607619,6.02823968 C27.1322033,6.02823968 26.7466671,6.41377585 26.7466671,6.88919151 L26.7466671,14.639729 L24.1630232,14.639729 C23.6876075,14.639729 23.3020714,15.0252652 23.3020714,15.5010751 L23.3020714,20.6679687 C23.3020714,21.1433845 23.6876075,21.5289206 24.1630232,21.5289206 L25.0243693,21.5289206 L25.0243693,24.912414 C25.0172736,28.9104787 26.5606006,32.7551964 29.3299168,35.6384389 L29.3299168,40.4745914 C29.3299168,40.9504014 29.715453,41.3359374 30.1912629,41.3359374 L31.0522148,41.3359374 L31.0522148,50.8083788 C31.0522148,51.2841887 31.4377508,51.6697248 31.9135608,51.6697248 L35.3581566,51.6697248 C35.8339664,51.6697248 36.2191084,51.2841887 36.2191084,50.8083788 L36.2191084,41.3359374 L37.0804544,41.3359374 C37.5562644,41.3359374 37.9418005,40.9504014 37.9418005,40.4745914 L37.9418005,35.6384389 C40.7107225,32.7548021 42.2544438,28.9104787 42.247348,24.912414 L42.247348,21.5289206 L43.1086941,21.5289206 C43.5841098,21.5289206 43.969646,21.1433845 43.969646,20.6679687 L43.969646,15.5010751 C43.969646,15.0252652 43.5841098,14.639729 43.1086941,14.639729 Z M37.0804544,7.75053753 L38.8027523,7.75053753 L38.8027523,14.639729 L37.0804544,14.639729 L37.0804544,7.75053753 Z M28.468965,7.75053753 L30.1912629,7.75053753 L30.1912629,14.639729 L28.468965,14.639729 L28.468965,7.75053753 Z M34.4968105,49.9474269 L32.7745126,49.9474269 L32.7745126,41.3359374 L34.4968105,41.3359374 L34.4968105,49.9474269 Z M36.2191084,39.6132454 L31.0522148,39.6132454 L31.0522148,36.1686497 L36.2191084,36.1686497 L36.2191084,39.6132454 Z M40.5250501,24.912414 C40.5349053,28.4630519 39.170549,31.8796589 36.7177824,34.4463518 L30.5535407,34.4463518 C28.1007741,31.8796589 26.7364177,28.4630519 26.7466671,24.912414 L26.7466098,21.5289206 L40.5251032,21.5289206 L40.5250501,24.912414 Z M42.247348,19.8066227 L25.0239751,19.8066227 L25.0239751,16.3620269 L42.247348,16.3620269 L42.247348,19.8066227 Z" id="Shape" fill="#86939E"></path>
                        <path d="M21.5793793,31.8631021 L11.6382239,31.8631021 L15.4943735,21.8383745 C15.6654602,21.3944954 15.444309,20.8958214 15.00043,20.7251291 C14.66417,20.5954343 14.282576,20.6888618 14.0444739,20.9596832 L1.12704274,35.5994122 C0.812464138,35.9565654 0.846760321,36.5005734 1.20391347,36.815152 C1.36080849,36.9535192 1.56303753,37.0299957 1.77275657,37.0299957 L11.7458429,37.0299957 L7.8506666,47.9357798 C7.69022362,48.3836009 7.923201,48.8763618 8.3710221,49.0368047 C8.71161843,49.1590095 9.09202982,49.0549384 9.32343036,48.7770213 L22.2408616,33.2763403 C22.5455849,32.9113031 22.496703,32.3680834 22.1320599,32.0633601 C21.9767417,31.9336654 21.7812141,31.8631021 21.5793793,31.8631021 Z M11.1024943,43.9503297 L13.7791714,36.4579989 C13.938826,36.0101778 13.7050603,35.5174168 13.2572392,35.3577623 C13.1646001,35.3246488 13.066442,35.3076979 12.9678899,35.3076979 L3.68112094,35.3076979 L12.1668578,25.6901878 L9.58360811,32.4149943 C9.41291576,32.8588732 9.63406683,33.357153 10.0779458,33.5278455 C10.1757096,33.5656895 10.2797807,33.5850057 10.384246,33.5853999 L19.7407898,33.5853999 L11.1024943,43.9503297 Z" id="Shape" fill="#FBC52A"></path>
                    </g>
                </g>
            </g>
        </g>
    </g>
</svg>