<?xml version="1.0" encoding="UTF-8"?>
<svg width="47px" height="51px" viewBox="0 0 47 51" version="1.1" xmlns="http://www.w3.org/2000/svg" xmlns:xlink="http://www.w3.org/1999/xlink">
    <!-- Generator: Sketch 52.5 (67469) - http://www.bohemiancoding.com/sketch -->
    <title>pipes</title>
    <desc>Created with Sketch.</desc>
    <g id="Main" stroke="none" stroke-width="1" fill="none" fill-rule="evenodd">
        <g id="Main-Copy-5" transform="translate(-767.000000, -2031.000000)" fill="#4B709A" fill-rule="nonzero">
            <g id="Популярные-категории" transform="translate(44.000000, 1646.000000)">
                <g id="Фасонные-части" transform="translate(674.666667, 304.000000)">
                    <g id="pipes" transform="translate(49.000000, 81.000000)">
                        <path d="M45.4447425,7.51487983 L38.457382,0.526630901 C37.7551416,-0.175609442 36.6164936,-0.175609442 35.9151416,0.527223176 L32.4219056,4.02124893 L31.3094163,2.90875966 C30.6081631,2.20750644 29.4700086,2.20750644 28.7687554,2.90875966 L26.544073,5.13344206 C25.8428197,5.83469528 25.8428197,6.97284979 26.544073,7.674103 L27.6560687,8.78609871 L16.8748927,19.567867 L16.8748927,13.4778026 L18.4478755,13.4778026 C19.4404292,13.4778026 20.2446395,12.6735923 20.2446395,11.6810386 L20.2446395,8.53576395 C20.2446395,7.5432103 19.4404292,6.739 18.4478755,6.739 L16.8750901,6.739 L16.8750901,1.79706009 C16.8750901,0.804506438 16.0708798,0.000296137339 15.0783262,0.000296137339 L5.19424893,0.000296137339 C4.20169528,0.000296137339 3.39748498,0.804506438 3.39748498,1.79706009 L3.39748498,6.73909871 L1.82499571,6.73909871 C0.83244206,6.73909871 0.0282317597,7.54330901 0.0282317597,8.53586266 L0.0282317597,11.6811373 C0.0282317597,12.673691 0.83244206,13.4779013 1.82499571,13.4779013 L3.39728755,13.4779013 L3.39728755,37.0635622 L1.82499571,37.0635622 C0.83244206,37.0635622 0.0282317597,37.8677725 0.0282317597,38.8603262 L0.0282317597,42.0056009 C0.0282317597,42.9981545 0.83244206,43.8023648 1.82499571,43.8023648 L3.3976824,43.8023648 L3.3976824,48.7444034 C3.3976824,49.7369571 4.2018927,50.5411674 5.19444635,50.5411674 L15.0785236,50.5411674 C16.0710773,50.5411674 16.8752876,49.7369571 16.8752876,48.7444034 L16.8752876,43.8023648 L18.4479742,43.8023648 C19.4405279,43.8023648 20.2447382,42.9981545 20.2447382,42.0056009 L20.2447382,38.8603262 C20.2447382,37.8677725 19.4405279,37.0635622 18.4479742,37.0635622 L18.0922146,37.0635622 L37.1808326,18.3108627 L38.2981588,19.4281888 C38.9993133,20.1293433 40.1369742,20.1293433 40.8390172,19.4288798 L43.0635021,17.2043948 C43.7656438,16.5022532 43.7656438,15.3649871 43.0635021,14.6628455 L41.9516052,13.5509485 L45.4455322,10.0570215 C46.1476738,9.35487983 46.1476738,8.21613305 45.4447425,7.51487983 Z M5.0822103,1.79706009 C5.0822103,1.73496996 5.1321588,1.68502146 5.19424893,1.68502146 L15.0783262,1.68502146 C15.1404163,1.68502146 15.1903648,1.73496996 15.1903648,1.79706009 L15.1903648,6.73909871 L5.0822103,6.73909871 L5.0822103,1.79706009 Z M1.71295708,11.6811373 L1.71295708,8.53576395 C1.71295708,8.47367382 1.76290558,8.42372532 1.82499571,8.42372532 L4.23979828,8.42372532 L16.0326781,8.42372532 L18.4478755,8.42372532 C18.5099657,8.42372532 18.5599142,8.47367382 18.5599142,8.53576395 L18.5599142,11.6810386 C18.5599142,11.7431288 18.5099657,11.7930773 18.4478755,11.7930773 L16.0324807,11.7930773 L4.23969957,11.7930773 L1.82499571,11.7930773 C1.76290558,11.793176 1.71295708,11.7432275 1.71295708,11.6811373 Z M5.08201288,13.4778026 L15.1901674,13.4778026 L15.1901674,37.0635622 L5.08201288,37.0635622 L5.08201288,13.4778026 Z M15.1905622,48.7443047 C15.1905622,48.8063948 15.1406137,48.8563433 15.0785236,48.8563433 L5.19444635,48.8563433 C5.13235622,48.8563433 5.08240773,48.8063948 5.08240773,48.7443047 L5.08240773,43.8022661 L15.1905622,43.8022661 L15.1905622,48.7443047 Z M18.5599142,38.8602275 L18.5599142,42.0055021 C18.5599142,42.0675923 18.5099657,42.1175408 18.4478755,42.1175408 L16.0328755,42.1175408 L4.23999571,42.1175408 L1.82499571,42.1175408 C1.76290558,42.1175408 1.71295708,42.0675923 1.71295708,42.0055021 L1.71295708,38.8602275 C1.71295708,38.7981373 1.76290558,38.7481888 1.82499571,38.7481888 L4.23969957,38.7481888 L16.025176,38.7481888 C16.0405751,38.748485 16.0558755,38.7487811 16.0712747,38.7481888 L18.4478755,38.7481888 C18.5099657,38.7481888 18.5599142,38.7981373 18.5599142,38.8602275 Z M35.989176,17.1197983 L16.8750901,35.8975708 L16.8750901,21.9502918 L28.8473305,9.9772618 L29.9186567,11.048588 L35.989176,17.1197983 Z M41.8721416,16.013133 L39.6483476,18.236927 C39.6048155,18.2803605 39.5327554,18.2803605 39.4893219,18.236927 L31.1702318,9.91783691 L29.4429614,8.1903691 C29.4423691,8.18977682 29.4416781,8.18928326 29.4411845,8.18869099 L27.7352361,6.4828412 C27.6919013,6.43950644 27.6919013,6.36803863 27.7352361,6.32470386 L29.9599185,4.10002146 C30.0032532,4.0566867 30.074721,4.0566867 30.1180558,4.10002146 L31.8245966,5.80656223 C31.8251888,5.80715451 31.8255837,5.80774678 31.826176,5.80833906 L40.164515,14.1466781 C40.1650086,14.1471717 40.1656996,14.1476652 40.1661931,14.1482575 L41.8721416,15.854206 C41.9163648,15.8983305 41.9163648,15.9689099 41.8721416,16.013133 Z M44.2541717,8.86585837 L40.7603433,12.3596867 L33.6131674,5.21251073 L37.1071931,1.71779399 C37.1511202,1.67376824 37.2220944,1.67376824 37.2661202,1.7178927 L44.2541717,8.70683262 C44.2981974,8.75075966 44.2981974,8.82173391 44.2541717,8.86585837 Z" id="Shape"></path>
                    </g>
                </g>
            </g>
        </g>
    </g>
</svg>