<?xml version="1.0" encoding="UTF-8"?>
<svg width="50px" height="50px" viewBox="0 0 50 50" version="1.1" xmlns="http://www.w3.org/2000/svg" xmlns:xlink="http://www.w3.org/1999/xlink">
    <!-- Generator: Sketch 52.5 (67469) - http://www.bohemiancoding.com/sketch -->
    <title>pump</title>
    <desc>Created with Sketch.</desc>
    <g id="Main" stroke="none" stroke-width="1" fill="none" fill-rule="evenodd">
        <g id="Main-Copy-5" transform="translate(-72.000000, -1836.000000)" fill="#4874CE" fill-rule="nonzero">
            <g id="Популярные-категории" transform="translate(44.000000, 1646.000000)">
                <g id="Насосы" transform="translate(0.000000, 92.000000)">
                    <g id="pump" transform="translate(28.000000, 98.000000)">
                        <path d="M48.1579102,5.78945313 C49.1736328,5.78945313 50,4.96298828 50,3.94736328 L50,1.84208984 C50,0.826464844 49.1735352,0 48.1579102,0 L36.5789062,0 C35.5631836,0 34.7368164,0.826464844 34.7368164,1.84208984 L34.7368164,3.94736328 C34.7368164,4.96308594 35.5632813,5.78945313 36.5789062,5.78945313 L36.8420898,5.78945313 L36.8420898,10.5262695 L36.1378906,10.5262695 C35.8417969,9.90439453 35.2070312,9.47363281 34.4736328,9.47363281 L32.3683594,9.47363281 C31.3526367,9.47363281 30.5262695,10.3000977 30.5262695,11.3157227 L30.5262695,11.5789063 L29.2104492,11.5789063 C28.1947266,11.5789063 27.3683594,12.4053711 27.3683594,13.4209961 L27.3683594,14.4736328 C27.3683594,15.4893555 28.1948242,16.3157227 29.2104492,16.3157227 L30.5262695,16.3157227 L30.5262695,17.8946289 L25.7894531,17.8946289 L25.7894531,16.5788086 C25.7894531,14.9826172 24.490918,13.684082 22.8947266,13.684082 L2.89472656,13.684082 C1.29853516,13.6841797 0,14.9827148 0,16.5789063 L0,33.4209961 C0,35.0171875 1.29853516,36.3157227 2.89472656,36.3157227 L22.8947266,36.3157227 C24.490918,36.3157227 25.7894531,35.0171875 25.7894531,33.4209961 L25.7894531,32.1051758 L30.5262695,32.1051758 L30.5262695,33.684082 L29.2104492,33.684082 C28.1947266,33.684082 27.3683594,34.5105469 27.3683594,35.5261719 L27.3683594,36.5788086 C27.3683594,37.5945313 28.1948242,38.4208984 29.2104492,38.4208984 L30.5262695,38.4208984 L30.5262695,38.684082 C30.5262695,39.6998047 31.3527344,40.5261719 32.3683594,40.5261719 L34.4736328,40.5261719 C35.2070312,40.5261719 35.8416992,40.0954102 36.1378906,39.4735352 L36.8420898,39.4735352 L36.8420898,44.2103516 L36.5789063,44.2103516 C35.5631836,44.2103516 34.7368164,45.0368164 34.7368164,46.0524414 L34.7368164,48.1577148 C34.7368164,49.1734375 35.5632813,49.9998047 36.5789063,49.9998047 L48.1578125,49.9998047 C49.1735352,49.9998047 49.9999023,49.1733398 49.9999023,48.1577148 L49.9999023,46.0524414 C49.9999023,45.0367188 49.1734375,44.2103516 48.1578125,44.2103516 L47.8946289,44.2103516 L47.8946289,39.4735352 L48.1578125,39.4735352 C49.1735352,39.4735352 49.9999023,38.6470703 49.9999023,37.6314453 L49.9999023,12.368457 C49.9999023,11.3527344 49.1734375,10.5263672 48.1578125,10.5263672 L47.8946289,10.5263672 L47.8946289,5.78945313 L48.1579102,5.78945313 Z M24.2105469,33.4210938 C24.2105469,34.1466797 23.6203125,34.7369141 22.8947266,34.7369141 L5.78945312,34.7369141 L5.78945312,32.1053711 L24.2105469,32.1053711 L24.2105469,33.4210938 Z M24.2105469,30.5262695 L5.78945312,30.5262695 L5.78945312,27.8947266 L24.2105469,27.8947266 L24.2105469,30.5262695 Z M24.2105469,26.3158203 L5.78945312,26.3158203 L5.78945312,23.6842773 L24.2105469,23.6842773 L24.2105469,26.3158203 Z M24.2105469,22.1052734 L5.78945312,22.1052734 L5.78945312,21.8420898 C5.78945312,21.4060547 5.4359375,21.0526367 5,21.0526367 C4.5640625,21.0526367 4.21054687,21.4061523 4.21054687,21.8420898 L4.21054687,34.7368164 L2.89472656,34.7368164 C2.16914062,34.7368164 1.57890625,34.146582 1.57890625,33.4209961 L1.57890625,16.5789062 C1.57890625,15.8533203 2.16914062,15.2630859 2.89472656,15.2630859 L4.21054687,15.2630859 L4.21054687,18.6841797 C4.21054687,19.1202148 4.5640625,19.4736328 5,19.4736328 L24.2105469,19.4736328 L24.2105469,22.1052734 Z M24.2105469,17.8947266 L5.78945312,17.8947266 L5.78945312,15.2631836 L22.8947266,15.2631836 C23.6203125,15.2631836 24.2105469,15.853418 24.2105469,16.5790039 L24.2105469,17.8947266 Z M30.5262695,36.8420898 L29.2104492,36.8420898 C29.0654297,36.8420898 28.9472656,36.7240234 28.9472656,36.5789062 L28.9472656,35.5262695 C28.9472656,35.38125 29.065332,35.2630859 29.2104492,35.2630859 L30.5262695,35.2630859 L30.5262695,36.8420898 Z M30.5262695,30.5262695 L25.7894531,30.5262695 L25.7894531,19.4737305 L30.5262695,19.4737305 L30.5262695,30.5262695 Z M30.5262695,14.7368164 L29.2104492,14.7368164 C29.0654297,14.7368164 28.9472656,14.61875 28.9472656,14.4736328 L28.9472656,13.4209961 C28.9472656,13.2759766 29.065332,13.1578125 29.2104492,13.1578125 L30.5262695,13.1578125 L30.5262695,14.7368164 Z M48.1579102,45.7894531 C48.3029297,45.7894531 48.4210938,45.9075195 48.4210938,46.0526367 L48.4210938,48.1579102 C48.4210938,48.3029297 48.3030273,48.4210937 48.1579102,48.4210937 L36.5789063,48.4210937 C36.4338867,48.4210937 36.3157227,48.3030273 36.3157227,48.1579102 L36.3157227,46.0526367 C36.3157227,45.9076172 36.4337891,45.7894531 36.5789063,45.7894531 L39.7368164,45.7894531 C40.1728516,45.7894531 40.5262695,45.4359375 40.5262695,45 C40.5262695,44.5640625 40.1727539,44.2105469 39.7368164,44.2105469 L38.4209961,44.2105469 L38.4209961,39.4737305 L46.3157227,39.4737305 L46.3157227,44.2105469 L42.8946289,44.2105469 C42.4585938,44.2105469 42.1051758,44.5640625 42.1051758,45 C42.1051758,45.4359375 42.4586914,45.7894531 42.8946289,45.7894531 L48.1579102,45.7894531 Z M48.1579102,12.1052734 C48.3029297,12.1052734 48.4210937,12.2233398 48.4210937,12.368457 L48.4210937,37.6316406 C48.4210937,37.7766602 48.3030273,37.8948242 48.1579102,37.8948242 L36.3158203,37.8948242 L36.3158203,19.7368164 C36.3158203,19.3007812 35.9623047,18.9473633 35.5263672,18.9473633 C35.090332,18.9473633 34.7369141,19.3008789 34.7369141,19.7368164 L34.7369141,38.6841797 C34.7369141,38.8291992 34.6188477,38.9473633 34.4737305,38.9473633 L32.368457,38.9473633 C32.2234375,38.9473633 32.1052734,38.8292969 32.1052734,38.6841797 L32.1052734,11.3158203 C32.1052734,11.1708008 32.2233398,11.0526367 32.368457,11.0526367 L34.4737305,11.0526367 C34.61875,11.0526367 34.7369141,11.1707031 34.7369141,11.3158203 L34.7369141,16.5790039 C34.7369141,17.0150391 35.0904297,17.368457 35.5263672,17.368457 C35.9624023,17.368457 36.3158203,17.0149414 36.3158203,16.5790039 L36.3158203,12.1052734 L48.1579102,12.1052734 Z M42.8947266,5.78945313 L46.3158203,5.78945313 L46.3158203,10.5262695 L38.4210938,10.5262695 L38.4210938,5.78945313 L39.7369141,5.78945313 C40.1729492,5.78945313 40.5263672,5.4359375 40.5263672,5 C40.5263672,4.5640625 40.1728516,4.21054688 39.7369141,4.21054688 L36.5790039,4.21054688 C36.4339844,4.21054688 36.3158203,4.09248047 36.3158203,3.94736328 L36.3158203,1.84208984 C36.3158203,1.69707031 36.4338867,1.57890625 36.5790039,1.57890625 L48.1579102,1.57890625 C48.3029297,1.57890625 48.4210937,1.69697266 48.4210937,1.84208984 L48.4210937,3.94736328 C48.4210937,4.09238281 48.3030273,4.21054688 48.1579102,4.21054688 L42.8947266,4.21054688 C42.4586914,4.21054688 42.1052734,4.5640625 42.1052734,5 C42.1052734,5.4359375 42.4586914,5.78945313 42.8947266,5.78945313 Z" id="Shape"></path>
                    </g>
                </g>
            </g>
        </g>
    </g>
</svg>