<?xml version="1.0" encoding="UTF-8"?>
<svg width="60px" height="52px" viewBox="0 0 60 52" version="1.1" xmlns="http://www.w3.org/2000/svg" xmlns:xlink="http://www.w3.org/1999/xlink">
    <!-- Generator: Sketch 52.5 (67469) - http://www.bohemiancoding.com/sketch -->
    <title>radiator</title>
    <desc>Created with Sketch.</desc>
    <g id="Main" stroke="none" stroke-width="1" fill="none" fill-rule="evenodd">
        <g id="Main-Copy-5" transform="translate(-73.000000, -2030.000000)" fill-rule="nonzero">
            <g id="Популярные-категории" transform="translate(44.000000, 1646.000000)">
                <g id="Радиаторы" transform="translate(0.000000, 304.000000)">
                    <g id="radiator" transform="translate(29.000000, 80.000000)">
                        <path d="M42,10 C40.346,10 39,11.346 39,13 L39,39 C39,40.654 40.346,42 42,42 C43.654,42 45,40.654 45,39 L45,13 C45,11.346 43.654,10 42,10 Z M43,39 C43,39.552 42.552,40 42,40 C41.448,40 41,39.552 41,39 L41,13 C41,12.448 41.448,12 42,12 C42.552,12 43,12.448 43,13 L43,39 Z" id="Shape" fill="#FBC52A"></path>
                        <path d="M32,10 C30.346,10 29,11.346 29,13 L29,39 C29,40.654 30.346,42 32,42 C33.654,42 35,40.654 35,39 L35,13 C35,11.346 33.654,10 32,10 Z M33,39 C33,39.552 32.552,40 32,40 C31.448,40 31,39.552 31,39 L31,13 C31,12.448 31.448,12 32,12 C32.552,12 33,12.448 33,13 L33,39 Z" id="Shape" fill="#FBC52A"></path>
                        <path d="M12,10 C10.346,10 9,11.346 9,13 L9,39 C9,40.654 10.346,42 12,42 C13.654,42 15,40.654 15,39 L15,13 C15,11.346 13.654,10 12,10 Z M13,39 C13,39.552 12.552,40 12,40 C11.448,40 11,39.552 11,39 L11,13 C11,12.448 11.448,12 12,12 C12.552,12 13,12.448 13,13 L13,39 Z" id="Shape" fill="#FBC52A"></path>
                        <path d="M22,10 C20.346,10 19,11.346 19,13 L19,39 C19,40.654 20.346,42 22,42 C23.654,42 25,40.654 25,39 L25,13 C25,11.346 23.654,10 22,10 Z M23,39 C23,39.552 22.552,40 22,40 C21.448,40 21,39.552 21,39 L21,13 C21,12.448 21.448,12 22,12 C22.552,12 23,12.448 23,13 L23,39 Z" id="Shape" fill="#FBC52A"></path>
                        <path d="M57.5,13 C58.879,13 60,11.879 60,10.5 L60,7.5 C60,6.121 58.879,5 57.5,5 C56.121,5 55,6.121 55,7.5 L55,8 L54,8 L54,5 L51,5 L51,4 C51,1.794 49.206,0 47,0 C44.794,0 43,1.794 43,4 L43,5 C43,5.552 42.552,6 42,6 C41.448,6 41,5.552 41,5 L41,4 C41,1.794 39.206,0 37,0 C34.794,0 33,1.794 33,4 L33,5 C33,5.552 32.552,6 32,6 C31.448,6 31,5.552 31,5 L31,4 C31,1.794 29.206,0 27,0 C24.794,0 23,1.794 23,4 L23,5 C23,5.552 22.552,6 22,6 C21.448,6 21,5.552 21,5 L21,4 C21,1.794 19.206,0 17,0 C14.794,0 13,1.794 13,4 L13,5 C13,5.552 12.552,6 12,6 C11.448,6 11,5.552 11,5 L11,4 C11,1.794 9.206,0 7,0 C4.794,0 3,1.794 3,4 L3,6 L0,6 L0,13 L3,13 L3,39 L0,39 L0,46 L3,46 L3,48 C3,50.206 4.794,52 7,52 C9.206,52 11,50.206 11,48 L11,47 C11,46.448 11.448,46 12,46 C12.552,46 13,46.448 13,47 L13,48 C13,50.206 14.794,52 17,52 C19.206,52 21,50.206 21,48 L21,47 C21,46.448 21.448,46 22,46 C22.552,46 23,46.448 23,47 L23,48 C23,50.206 24.794,52 27,52 C29.206,52 31,50.206 31,48 L31,47 C31,46.448 31.448,46 32,46 C32.552,46 33,46.448 33,47 L33,48 C33,50.206 34.794,52 37,52 C39.206,52 41,50.206 41,48 L41,47 C41,46.448 41.448,46 42,46 C42.552,46 43,46.448 43,47 L43,48 C43,50.206 44.794,52 47,52 C49.206,52 51,50.206 51,48 L51,46 L54,46 L54,45 L60,45 L60,40 L54,40 L54,39 L51,39 L51,13 L54,13 L54,10 L55,10 L55,10.5 C55,11.879 56.121,13 57.5,13 Z M2,11 L2,8 L3,8 L3,11 L2,11 Z M2,44 L2,41 L3,41 L3,44 L2,44 Z M58,42 L58,43 L54,43 L54,42 L58,42 Z M52,41 L52,44 L51,44 L51,41 L52,41 Z M49,39 L49,46 L49,48 C49,49.103 48.103,50 47,50 C45.897,50 45,49.103 45,48 L45,47 C45,45.346 43.654,44 42,44 C40.346,44 39,45.346 39,47 L39,48 C39,49.103 38.103,50 37,50 C35.897,50 35,49.103 35,48 L35,47 C35,45.346 33.654,44 32,44 C30.346,44 29,45.346 29,47 L29,48 C29,49.103 28.103,50 27,50 C25.897,50 25,49.103 25,48 L25,47 C25,45.346 23.654,44 22,44 C20.346,44 19,45.346 19,47 L19,48 C19,49.103 18.103,50 17,50 C15.897,50 15,49.103 15,48 L15,47 C15,45.346 13.654,44 12,44 C10.346,44 9,45.346 9,47 L9,48 C9,49.103 8.103,50 7,50 C5.897,50 5,49.103 5,48 L5,46 L5,39 L5,13 L5,6 L5,4 C5,2.897 5.897,2 7,2 C8.103,2 9,2.897 9,4 L9,5 C9,6.654 10.346,8 12,8 C13.654,8 15,6.654 15,5 L15,4 C15,2.897 15.897,2 17,2 C18.103,2 19,2.897 19,4 L19,5 C19,6.654 20.346,8 22,8 C23.654,8 25,6.654 25,5 L25,4 C25,2.897 25.897,2 27,2 C28.103,2 29,2.897 29,4 L29,5 C29,6.654 30.346,8 32,8 C33.654,8 35,6.654 35,5 L35,4 C35,2.897 35.897,2 37,2 C38.103,2 39,2.897 39,4 L39,5 C39,6.654 40.346,8 42,8 C43.654,8 45,6.654 45,5 L45,4 C45,2.897 45.897,2 47,2 C48.103,2 49,2.897 49,4 L49,5 L49,13 L49,39 Z M52,11 L51,11 L51,7 L52,7 L52,11 Z M57,7.5 C57,7.225 57.225,7 57.5,7 C57.775,7 58,7.225 58,7.5 L58,10.5 C58,10.775 57.775,11 57.5,11 C57.225,11 57,10.775 57,10.5 L57,7.5 Z" id="Shape" fill="#86939E"></path>
                    </g>
                </g>
            </g>
        </g>
    </g>
</svg>