<?xml version="1.0" encoding="UTF-8"?>
<svg width="22px" height="55px" viewBox="0 0 22 55" version="1.1" xmlns="http://www.w3.org/2000/svg" xmlns:xlink="http://www.w3.org/1999/xlink">
    <!-- Generator: Sketch 52.5 (67469) - http://www.bohemiancoding.com/sketch -->
    <title>pipes (6)</title>
    <desc>Created with Sketch.</desc>
    <g id="Main" stroke="none" stroke-width="1" fill="none" fill-rule="evenodd">
        <g id="Main-Copy-5" transform="translate(-441.000000, -1834.000000)" fill="#EB7B2D" fill-rule="nonzero">
            <g id="Популярные-категории" transform="translate(44.000000, 1646.000000)">
                <g id="Трубы" transform="translate(337.333333, 92.000000)">
                    <g id="pipes-(6)" transform="translate(59.666667, 96.000000)">
                        <path d="M19.9920194,14.5811942 C21.0651068,14.5811942 21.9359223,13.7109126 21.9359223,12.6372913 L21.9359223,9.2344466 C21.9359223,8.16082524 21.0651068,7.29054369 19.9920194,7.29054369 L18.2904369,7.29054369 L18.2904369,1.94390291 C18.2904369,0.870067961 17.4203689,0 16.346534,0 L5.65303883,0 C4.57920388,0 3.70913592,0.870067961 3.70913592,1.94390291 L3.70913592,7.29065049 L2.00787379,7.29065049 C0.934038835,7.29065049 0.0639708738,8.16071845 0.0639708738,9.2345534 L0.0639708738,12.6373981 C0.0639708738,13.711233 0.934038835,14.581301 2.00787379,14.581301 L3.70892233,14.581301 L3.70892233,40.0984175 L2.00787379,40.0984175 C0.934038835,40.0984175 0.0639708738,40.9684854 0.0639708738,42.0423204 L0.0639708738,45.445165 C0.0639708738,46.519 0.934038835,47.389068 2.00787379,47.389068 L3.70934951,47.389068 L3.70934951,52.7358155 C3.70934951,53.8096505 4.57941748,54.6797184 5.65325243,54.6797184 L16.3467476,54.6797184 C17.419835,54.6797184 18.2906505,53.8094369 18.2906505,52.7358155 L18.2906505,47.389068 L19.9921262,47.389068 C21.0652136,47.389068 21.9360291,46.5187864 21.9360291,45.445165 L21.9360291,42.0423204 C21.9360291,40.968699 21.0652136,40.0984175 19.9921262,40.0984175 L18.2903301,40.0984175 L18.2903301,14.5811942 L19.9920194,14.5811942 Z M5.53182524,1.94390291 C5.53182524,1.87672816 5.58586408,1.82268932 5.65303883,1.82268932 L16.346534,1.82268932 C16.4137087,1.82268932 16.4677476,1.87672816 16.4677476,1.94390291 L16.4677476,7.29065049 L5.53182524,7.29065049 L5.53182524,1.94390291 Z M2.00798058,12.7586117 C1.94080583,12.7586117 1.88676699,12.7045728 1.88676699,12.6373981 L1.88676699,9.2344466 C1.88676699,9.16727184 1.94080583,9.11323301 2.00798058,9.11323301 L3.70924272,9.11323301 L18.2904369,9.11323301 L19.9920194,9.11323301 C20.058767,9.11323301 20.113233,9.16769903 20.113233,9.2344466 L20.113233,12.6372913 C20.113233,12.7040388 20.058767,12.7585049 19.9920194,12.7585049 L18.2902233,12.7585049 L3.70902913,12.7585049 L2.00798058,12.7585049 L2.00798058,12.7586117 Z M16.4679612,52.7357087 C16.4679612,52.8024563 16.4134951,52.8569223 16.3467476,52.8569223 L5.65325243,52.8569223 C5.58607767,52.8569223 5.53203883,52.8028835 5.53203883,52.7357087 L5.53203883,47.3889612 L16.4679612,47.3889612 L16.4679612,52.7357087 Z M19.9920194,41.921 C20.058767,41.921 20.113233,41.975466 20.113233,42.0422136 L20.113233,45.4450583 C20.113233,45.5118058 20.058767,45.5662718 19.9920194,45.5662718 L18.2905437,45.5662718 L3.70934951,45.5662718 L2.00787379,45.5662718 C1.94069903,45.5662718 1.88666019,45.512233 1.88666019,45.4450583 L1.88666019,42.0422136 C1.88666019,41.9750388 1.94069903,41.921 2.00787379,41.921 L3.70892233,41.921 L18.2901165,41.921 L19.9920194,41.921 Z M16.4676408,40.0984175 L5.53171845,40.0984175 L5.53171845,14.5811942 L16.4676408,14.5811942 L16.4676408,40.0984175 Z" id="Shape"></path>
                    </g>
                </g>
            </g>
        </g>
    </g>
</svg>