<?xml version="1.0" encoding="UTF-8"?>
<svg width="24px" height="14px" viewBox="0 0 24 14" version="1.1" xmlns="http://www.w3.org/2000/svg" xmlns:xlink="http://www.w3.org/1999/xlink">
    <!-- Generator: Sketch 52.5 (67469) - http://www.bohemiancoding.com/sketch -->
    <title>Shape</title>
    <desc>Created with Sketch.</desc>
    <g id="Login-/-SignUp" stroke="none" stroke-width="1" fill="none" fill-rule="evenodd">
        <g id="Вход-в-аккаунт-Hover" transform="translate(-754.000000, -621.000000)" fill="#0096EA" fill-rule="nonzero">
            <g id="Вход">
                <g id="Or" transform="translate(389.000000, 577.000000)">
                    <g id="social" transform="translate(252.000000, 25.000000)">
                        <path d="M133,27.293 L133,26.675 L136.22,22.65 C136.723,22.021 137,21.232 137,20.427 C137,19.64 136.36,19 135.573,19 L132.065,19 C131.521,19 131.034,19.323 130.824,19.822 C129.628,22.666 128.583,24.75 128.164,25.13 C127.772,25.484 127.276,25.338 126.999,25.209 L126.999,20.094 C127,19.491 126.509,19 125.906,19 L121.5,19 C121.298,19 121.115,19.122 121.038,19.309 C120.96,19.496 121.003,19.71 121.146,19.854 L121.42,20.127 C121.794,20.501 122,20.998 122,21.527 L122,25.323 C121.954,25.366 121.892,25.408 121.827,25.415 C121.715,25.436 121.537,25.329 121.354,25.146 C120.631,24.423 118.649,20.662 117.947,19.274 C117.861,19.106 117.688,19 117.5,19 L114.297,19 C113.582,19 113,19.582 113,20.297 L113,20.552 C113,21.612 113.293,22.646 113.849,23.541 C116.532,27.856 120.21,33 122.5,33 L125.771,33 C126.449,33 127,32.449 127,31.771 L127,30.914 C127,30.41 127.41,30 127.914,30 C128.155,30 128.391,30.098 128.56,30.268 L130.636,32.344 C131.06,32.767 131.623,33 132.221,33 L135.789,33 C136.28,33 136.718,32.707 136.906,32.254 C137.094,31.801 136.991,31.284 136.644,30.937 L133,27.293 Z" id="Shape"></path>
                    </g>
                </g>
            </g>
        </g>
    </g>
</svg>