<?xml version="1.0" encoding="UTF-8"?>
<svg width="23px" height="20px" viewBox="0 0 23 20" version="1.1" xmlns="http://www.w3.org/2000/svg" xmlns:xlink="http://www.w3.org/1999/xlink">
    <!-- Generator: Sketch 52.5 (67469) - http://www.bohemiancoding.com/sketch -->
    <title>Mail icon</title>
    <desc>Created with Sketch.</desc>
    <g id="Symbols" stroke="none" stroke-width="1" fill="none" fill-rule="evenodd">
        <g id="Button-Send-Mail" transform="translate(-6.000000, -9.000000)" fill="#53627C">
            <g id="Mail-icon">
                <g transform="translate(6.000000, 9.000000)">
                    <path d="M22.4844167,5.95508333 C22.4844167,5.95508333 22.4844167,5.95508333 22.4844167,5.95508333 L16.9270417,0.39675 C16.6989583,0.168666667 16.39325,0.0757083333 16.0932917,0.0958333333 C16.0405833,0.09775 15.99075,0.107333333 15.9428333,0.125541667 C15.7454167,0.167708333 15.55375,0.245333333 15.4004167,0.397708333 L6.07008333,9.72708333 C5.91579167,9.881375 5.83816667,10.0730417 5.79695833,10.2714167 C5.77970833,10.318375 5.77108333,10.3653333 5.76916667,10.416125 C5.74808333,10.7170417 5.84104167,11.0237083 6.07104167,11.2537083 L11.6284167,16.8120417 C11.83925,17.0219167 12.11525,17.1254167 12.39125,17.1254167 C12.66725,17.1254167 12.9442083,17.0209583 13.1550417,16.8110833 L22.4844167,7.48075 C22.9041667,7.06004167 22.9041667,6.37579167 22.4844167,5.95508333 Z M15.3342917,1.81891667 L13.9025417,8.20620833 L7.49608333,9.65616667 L15.3342917,1.81891667 Z M21.806875,6.80320833 L12.4784583,16.131625 C12.4295833,16.1805 12.3529167,16.1795417 12.3059583,16.1325833 L6.93833333,10.7649583 L14.4104583,9.0735 C14.590625,9.03229167 14.7315,8.89141667 14.7727083,8.71125 L16.4411667,1.26595833 L21.806875,6.63166667 C21.8538333,6.67958333 21.8538333,6.75625 21.806875,6.80320833 Z" id="Shape" fill-rule="nonzero"></path>
                    <path d="M5.612,12.825375 C5.425125,12.6385 5.12133333,12.6385 4.93445833,12.825375 L0.238625,17.5212083 C0.05175,17.7080833 0.05175,18.011875 0.238625,18.19875 C0.332541667,18.2926667 0.455208333,18.3386667 0.577875,18.3386667 C0.700541667,18.3386667 0.823208333,18.2917083 0.917125,18.19875 L5.61295833,13.5029167 C5.798875,13.3150833 5.798875,13.01225 5.612,12.825375 Z" id="Path"></path>
                    <path d="M7.58616667,14.7985833 C7.39929167,14.6117083 7.0955,14.6117083 6.908625,14.7985833 L3.75858333,17.948625 C3.57170833,18.1355 3.57170833,18.4392917 3.75858333,18.6261667 C3.8525,18.7200833 3.97516667,18.7660833 4.09783333,18.7660833 C4.2205,18.7660833 4.34316667,18.719125 4.43708333,18.6261667 L7.587125,15.476125 C7.77304167,15.28925 7.77304167,14.9854583 7.58616667,14.7985833 Z" id="Path"></path>
                    <path d="M8.88279167,16.77275 L7.30729167,18.34825 C7.12041667,18.535125 7.12041667,18.8389167 7.30729167,19.0257917 C7.40120833,19.1197083 7.523875,19.1657083 7.64654167,19.1657083 C7.76920833,19.1657083 7.891875,19.11875 7.98579167,19.0257917 L9.56129167,17.4502917 C9.74816667,17.2634167 9.74816667,16.959625 9.56129167,16.77275 C9.37441667,16.585875 9.06966667,16.5849167 8.88279167,16.77275 Z" id="Path"></path>
                </g>
            </g>
        </g>
    </g>
</svg>