<?xml version="1.0" encoding="UTF-8"?>
<svg width="19px" height="21px" viewBox="0 0 19 21" version="1.1" xmlns="http://www.w3.org/2000/svg" xmlns:xlink="http://www.w3.org/1999/xlink">
    <!-- Generator: Sketch 52.5 (67469) - http://www.bohemiancoding.com/sketch -->
    <title>Mobile message sms icon</title>
    <desc>Created with Sketch.</desc>
    <g id="Symbols" stroke="none" stroke-width="1" fill="none" fill-rule="evenodd">
        <g id="Button-Send-SMS" transform="translate(-12.000000, -8.000000)" fill="#53627C">
            <g id="Mobile-message-sms-icon">
                <g transform="translate(12.000000, 8.000000)">
                    <path d="M5.7826087,17.0793478 C5.16634783,17.0793478 4.66408696,17.5807826 4.66408696,18.1978696 C4.66408696,18.8149565 5.16634783,19.3147391 5.7826087,19.3147391 C6.39886957,19.3147391 6.90030435,18.8141304 6.90030435,18.1970435 C6.90030435,17.5799565 6.39969565,17.0793478 5.7826087,17.0793478 Z M5.7826087,18.4886522 C5.62152174,18.4886522 5.49017391,18.3581304 5.49017391,18.1970435 C5.49017391,18.0359565 5.62152174,17.9046087 5.7826087,17.9046087 C5.94369565,17.9046087 6.07421739,18.0351304 6.07421739,18.1970435 C6.07504348,18.3573043 5.94369565,18.4886522 5.7826087,18.4886522 Z" id="Shape" fill-rule="nonzero"></path>
                    <path d="M14.4705652,2.4766087 L11.523087,2.4766087 C11.3289565,1.52330435 10.4838696,0.802956522 9.47356522,0.802956522 L2.09165217,0.802956522 C0.938434783,0.802956522 0,1.7413913 0,2.89378261 L0,18.5663043 C0,19.7195217 0.938434783,20.6571304 2.09165217,20.6571304 L9.47356522,20.6571304 C10.6267826,20.6571304 11.5652174,19.7186957 11.5652174,18.5663043 L11.5652174,16.1425652 C11.5660435,16.1301739 11.5726522,16.1194348 11.5726522,16.1062174 C11.5726522,16.093 11.5660435,16.083087 11.5652174,16.0706957 L11.5652174,13.8080435 L13.3198261,12.3888261 L14.4705652,12.3888261 C16.9405652,12.3888261 18.9504348,10.1658261 18.9504348,7.43230435 C18.9496087,4.70043478 16.9405652,2.4766087 14.4705652,2.4766087 Z M2.09165217,1.62904348 L9.47356522,1.62904348 C10.0237391,1.62904348 10.4888261,1.98508696 10.6623043,2.4766087 L10.3533478,2.4766087 C9.41904348,2.4766087 8.55,2.78143478 7.82717391,3.30269565 L0.826086957,3.30269565 L0.826086957,2.89378261 C0.826086957,2.19656522 1.39443478,1.62904348 2.09165217,1.62904348 Z M9.47356522,19.8318696 L2.09165217,19.8318696 C1.39443478,19.8318696 0.826086957,19.2643478 0.826086957,18.5663043 L0.826086957,16.5192609 L10.7391304,16.5192609 L10.7391304,18.5663043 C10.7391304,19.2643478 10.1707826,19.8318696 9.47356522,19.8318696 Z M10.7391304,15.694 L0.833521739,15.694 L0.833521739,4.12878261 L6.95317391,4.12878261 C6.24191304,4.99121739 5.80656522,6.12047826 5.80656522,7.36043478 C5.80656522,9.67678261 7.4546087,11.533 9.09108696,12.074087 L9.09108696,14.9447391 C9.09108696,15.1033478 9.18278261,15.2487391 9.32652174,15.3173043 C9.38269565,15.3445652 9.44382609,15.3577826 9.50413043,15.3577826 C9.59665217,15.3577826 9.68917391,15.3263913 9.76352174,15.266087 L10.7391304,14.4763478 L10.7391304,15.694 Z M14.4705652,11.5635652 L13.1744348,11.5635652 C13.0802609,11.5635652 12.9877391,11.5957826 12.9150435,11.6552609 L9.918,14.079 L9.918,11.761 C9.918,11.5676957 9.78334783,11.4 9.595,11.3578696 C8.17082609,11.039 6.63347826,9.42069565 6.63347826,7.36043478 C6.63347826,5.16056522 8.33769565,3.30269565 10.3541739,3.30269565 L11.1306957,3.30269565 C11.1381304,3.30269565 11.1447391,3.30682609 11.153,3.30682609 C11.1612609,3.30682609 11.1670435,3.30269565 11.1753043,3.30269565 L14.4713913,3.30269565 C16.4515217,3.30269565 18.1251739,5.19443478 18.1251739,7.43313043 C18.1235217,9.67182609 16.4506957,11.5635652 14.4705652,11.5635652 Z" id="Shape" fill-rule="nonzero"></path>
                    <path d="M9.29265217,7.26213043 C9.01921739,7.18282609 8.949,7.12665217 8.94486957,7.13656522 C8.94982609,7.10765217 9.03243478,7.03330435 9.17865217,7.03330435 C9.291,7.03330435 9.37443478,7.07873913 9.40417391,7.12169565 C9.53634783,7.30756522 9.79491304,7.35217391 9.97995652,7.21834783 C10.1658261,7.08617391 10.2087826,6.82843478 10.0766087,6.64256522 C9.88330435,6.36995652 9.54708696,6.20721739 9.17782609,6.20721739 C8.59295652,6.20721739 8.11713043,6.62521739 8.11713043,7.13986957 C8.11713043,7.7833913 8.80443478,7.98165217 9.07126087,8.05847826 C9.31908696,8.1253913 9.39756522,8.18486957 9.41078261,8.18486957 C9.40004348,8.21626087 9.31826087,8.28565217 9.17782609,8.28565217 C9.06547826,8.28565217 8.84243478,8.20717391 8.70117391,8.09482609 C8.52273913,7.95273913 8.26252174,7.98165217 8.12043478,8.16091304 C7.97834783,8.33934783 8.00726087,8.59873913 8.18652174,8.74165217 C8.46408696,8.96386957 8.86308696,9.11256522 9.17782609,9.11256522 C9.76269565,9.11256522 10.2385217,8.69456522 10.2385217,8.17991304 C10.2393478,7.73795652 9.918,7.429 9.29265217,7.26213043 Z" id="Path"></path>
                    <path d="M16.1946087,7.26213043 C15.9277826,7.18530435 15.8674783,7.11921739 15.846,7.13656522 C15.8517826,7.10765217 15.9335652,7.03330435 16.0797826,7.03330435 C16.1921304,7.03330435 16.2747391,7.07873913 16.3053043,7.12169565 C16.4383043,7.30756522 16.6968696,7.35217391 16.881087,7.21834783 C17.0669565,7.08617391 17.109913,6.82843478 16.9777391,6.64256522 C16.7844348,6.36995652 16.4473913,6.20721739 16.0789565,6.20721739 C15.494087,6.20721739 15.019087,6.62521739 15.019087,7.13986957 C15.019087,7.78421739 15.7063913,7.98165217 15.9723913,8.05847826 C16.2210435,8.1253913 16.2986957,8.18486957 16.311913,8.18486957 C16.311913,8.18486957 16.311913,8.18486957 16.3127391,8.18486957 C16.3011739,8.21626087 16.2202174,8.28565217 16.0789565,8.28565217 C15.9666087,8.28565217 15.7443913,8.20717391 15.6031304,8.09482609 C15.4263478,7.9543913 15.1661304,7.98165217 15.0232174,8.16091304 C14.8803043,8.33934783 14.9100435,8.59873913 15.0884783,8.74165217 C15.3668696,8.96386957 15.7642174,9.11256522 16.0789565,9.11256522 C16.6638261,9.11256522 17.1396522,8.69456522 17.1396522,8.17991304 C17.1413043,7.73795652 16.8199565,7.429 16.1946087,7.26213043 Z" id="Path"></path>
                    <path d="M13.518913,6.20804348 C13.1603913,6.20804348 12.8935652,6.33691304 12.6936522,6.51452174 C12.549913,6.3716087 12.302087,6.20804348 11.9055652,6.20804348 C11.6767391,6.20804348 11.485087,6.26091304 11.3231739,6.34434783 C11.248,6.26173913 11.1414348,6.20804348 11.0208261,6.20804348 C10.7928261,6.20804348 10.6077826,6.39308696 10.6077826,6.62108696 L10.6077826,8.69786957 C10.6077826,8.92586957 10.7928261,9.11091304 11.0208261,9.11091304 C11.2488261,9.11091304 11.4338696,8.92586957 11.4338696,8.69786957 L11.4338696,7.47691304 C11.4545217,7.37530435 11.5495217,7.03413043 11.9055652,7.03413043 C12.0336087,7.03413043 12.0856522,7.07130435 12.112913,7.10021739 C12.1971739,7.18530435 12.2211304,7.36208696 12.2203043,7.44552174 L12.2203043,8.69786957 C12.2203043,8.92586957 12.4053478,9.11091304 12.6333478,9.11091304 C12.8613478,9.11091304 13.0463913,8.92586957 13.0463913,8.69786957 L13.0463913,7.47526087 C13.0579565,7.41165217 13.1438696,7.03413043 13.518913,7.03413043 C13.6461304,7.03413043 13.6981739,7.07130435 13.7262609,7.0993913 C13.8096957,7.18447826 13.8344783,7.36208696 13.8336522,7.44552174 L13.8336522,8.69786957 C13.8336522,8.92586957 14.0186957,9.11091304 14.2466957,9.11091304 C14.4746957,9.11091304 14.6597391,8.92586957 14.6597391,8.69786957 L14.6597391,7.45956522 C14.6613913,7.40173913 14.6688261,6.88626087 14.3218696,6.52691304 C14.1806087,6.38152174 13.927,6.20804348 13.518913,6.20804348 Z" id="Path"></path>
                </g>
            </g>
        </g>
    </g>
</svg>