<?xml version="1.0" encoding="UTF-8"?>
<svg width="18px" height="14px" viewBox="0 0 18 14" version="1.1" xmlns="http://www.w3.org/2000/svg" xmlns:xlink="http://www.w3.org/1999/xlink">
    <!-- Generator: Sketch 52.5 (67469) - http://www.bohemiancoding.com/sketch -->
    <title>Icon / Line / Menu</title>
    <desc>Created with Sketch.</desc>
    <defs>
        <path d="M1,8 C0.44771525,8 0,7.55228475 0,7 C0,6.44771525 0.44771525,6 1,6 L17,6 C17.5522847,6 18,6.44771525 18,7 C18,7.55228475 17.5522847,8 17,8 L1,8 Z M1,2 C0.44771525,2 0,1.55228475 0,1 C0,0.44771525 0.44771525,0 1,0 L17,0 C17.5522847,0 18,0.44771525 18,1 C18,1.55228475 17.5522847,2 17,2 L1,2 Z M1,14 C0.44771525,14 0,13.5522847 0,13 C0,12.4477153 0.44771525,12 1,12 L17,12 C17.5522847,12 18,12.4477153 18,13 C18,13.5522847 17.5522847,14 17,14 L1,14 Z" id="path-1"></path>
        <rect id="path-3" x="0" y="0" width="24" height="24"></rect>
    </defs>
    <g id="Листинги" stroke="none" stroke-width="1" fill="none" fill-rule="evenodd">
        <g id="Листинг-строчный" transform="translate(-316.000000, -453.000000)">
            <g id="Нави-меню" transform="translate(33.000000, 432.000000)">
                <g id="Icon-/-Line-/-Menu" transform="translate(283.000000, 21.000000)">
                    <mask id="mask-2" fill="white">
                        <use xlink:href="#path-1"></use>
                    </mask>
                    <use id="Mask" fill-opacity="0" fill="#051033" fill-rule="nonzero" xlink:href="#path-1"></use>
                    <g id="Color-/-Black-/-Black-800" mask="url(#mask-2)">
                        <g transform="translate(-3.000000, -5.000000)">
                            <mask id="mask-4" fill="white">
                                <use xlink:href="#path-3"></use>
                            </mask>
                            <g id="Background" stroke="none" fill="none"></g>
                            <polygon id="Black-/-Black-800" stroke="none" fill="#182C4F" fill-rule="evenodd" mask="url(#mask-4)" points="0 0 24 0 24 24 0 24"></polygon>
                        </g>
                    </g>
                </g>
            </g>
        </g>
    </g>
</svg>