<?xml version="1.0" encoding="UTF-8"?>
<svg width="23px" height="19px" viewBox="0 0 23 19" version="1.1" xmlns="http://www.w3.org/2000/svg" xmlns:xlink="http://www.w3.org/1999/xlink">
    <!-- Generator: Sketch 52.5 (67469) - http://www.bohemiancoding.com/sketch -->
    <title>Shape</title>
    <desc>Created with Sketch.</desc>
    <g id="Login-/-SignUp" stroke="none" stroke-width="1" fill="none" fill-rule="evenodd">
        <g id="Вход-в-аккаунт" transform="translate(-855.000000, -621.000000)" fill="#8A94A6" fill-rule="nonzero">
            <g id="Вход">
                <g id="Or" transform="translate(389.000000, 580.000000)">
                    <g id="social" transform="translate(252.000000, 25.000000)">
                        <g id="twitter.1" transform="translate(214.000000, 16.000000)">
                            <path d="M22.8696743,2.30105625 C22.7176743,2.13405625 22.4726743,2.09205625 22.2716743,2.19505625 C22.1466743,2.25905625 21.9116743,2.34305625 21.6326743,2.42605625 C21.9846743,1.95805625 22.2676743,1.43405625 22.3926743,0.963056246 C22.4466743,0.760056246 22.3676743,0.546056246 22.1956743,0.425056246 C22.0236743,0.305056246 21.7946743,0.305056246 21.6226743,0.425056246 C21.3516743,0.614056246 20.0436743,1.18205625 19.2166743,1.36605625 C17.3476743,-0.270943754 15.1726743,-0.440943754 12.9116743,0.879056246 C11.0736743,1.95205625 10.6736743,4.13405625 10.7516743,5.46405625 C6.54467429,5.05905625 3.92967429,2.83705625 2.45767429,0.998056246 C2.35467429,0.869056246 2.18867429,0.801056246 2.03267429,0.811056246 C1.86867429,0.823056246 1.72067429,0.914056246 1.63667429,1.05505625 C0.940674294,2.23005625 0.747674294,3.52905625 1.08067429,4.81205625 C1.26267429,5.51205625 1.58067429,6.12905625 1.94967429,6.62905625 C1.77267429,6.54205625 1.60167429,6.43305625 1.44067429,6.30305625 C1.29267429,6.18105625 1.08567429,6.15805625 0.910674294,6.23905625 C0.736674294,6.32205625 0.625674294,6.49805625 0.625674294,6.69105625 C0.625674294,8.89405625 2.00367429,10.3640562 3.29067429,11.1320562 C3.08267429,11.1070562 2.86567429,11.0610562 2.64667429,10.9940562 C2.45867429,10.9370562 2.25467429,10.9940562 2.12467429,11.1420562 C1.99467429,11.2890562 1.96367429,11.4990562 2.04467429,11.6780562 C2.76767429,13.2770562 4.13767429,14.3770562 5.83267429,14.7760562 C4.35267429,15.6450562 2.37167429,16.0710562 0.557674294,15.8620562 C0.322674294,15.8290562 0.0986742941,15.9780562 0.0246742941,16.2040562 C-0.0493257059,16.4300562 0.0476742941,16.6780562 0.254674294,16.7940562 C3.00667429,18.3390562 5.49467429,18.8910562 7.64467429,18.8910562 C10.7736743,18.8910562 13.1886743,17.7230562 14.6586743,16.7460562 C18.6216743,14.1160562 21.0916743,9.39405625 20.7476743,5.16905625 C21.3826743,4.70005625 22.3326743,3.83405625 22.9216743,2.90305625 C23.0436743,2.71505625 23.0216743,2.46705625 22.8696743,2.30105625 Z" id="Shape"></path>
                        </g>
                    </g>
                </g>
            </g>
        </g>
    </g>
</svg>