<?xml version="1.0" encoding="UTF-8"?>
<svg width="40px" height="25px" viewBox="0 0 40 25" version="1.1" xmlns="http://www.w3.org/2000/svg" xmlns:xlink="http://www.w3.org/1999/xlink">
    <!-- Generator: Sketch 52.5 (67469) - http://www.bohemiancoding.com/sketch -->
    <title>visa icon</title>
    <desc>Created with Sketch.</desc>
    <g id="Main" stroke="none" stroke-width="1" fill="none" fill-rule="evenodd">
        <g id="Main-Copy-5" transform="translate(-748.000000, -3877.000000)">
            <g id="Footer" transform="translate(0.000000, 3398.000000)">
                <g id="payment-icons" transform="translate(748.000000, 479.000000)">
                    <g id="visa-icon">
                        <g id="card" fill="#0066B2">
                            <rect x="0" y="0" width="40" height="25" rx="4"></rect>
                        </g>
                        <g id="logo" transform="translate(7.500000, 8.333333)">
                            <g id="registered" transform="translate(23.852104, 6.647809)" fill="#FFFFFF">
                                <path d="M0.0626969601,0.521603321 C0.0626969601,0.257999852 0.2764897,0.0443619655 0.540050585,0.0443619655 C0.804078778,0.0443619655 1.01740421,0.257999852 1.01740421,0.521603321 C1.01740421,0.784973306 0.804078778,0.998844676 0.540050585,0.998844676 C0.2764897,0.998844676 0.0626969601,0.784973306 0.0626969601,0.521603321 L0.0626969601,0.521603321 Z M0.540050585,0.883970534 C0.740992395,0.883970534 0.903147763,0.721699134 0.903147763,0.521603321 C0.903147763,0.320807056 0.740992395,0.159002624 0.540050585,0.159002624 C0.340043389,0.159002624 0.177654368,0.320807056 0.177654368,0.521603321 C0.177654368,0.721699134 0.340043389,0.883970534 0.540050585,0.883970534 L0.540050585,0.883970534 Z M0.475795937,0.730805011 L0.378128871,0.730805011 L0.378128871,0.311701179 L0.555238048,0.311701179 C0.592155264,0.311701179 0.629539787,0.312168147 0.662251244,0.332714741 C0.696130968,0.356530112 0.715290536,0.395988913 0.715290536,0.43754907 C0.715290536,0.485413296 0.687953104,0.529775262 0.643091676,0.546119144 L0.719729948,0.730805011 L0.611081179,0.730805011 L0.54752749,0.564797866 L0.475795937,0.564797866 L0.475795937,0.730805011 L0.475795937,0.730805011 Z M0.475795937,0.493118269 L0.529536188,0.493118269 C0.549864023,0.493118269 0.571593777,0.494986142 0.589351425,0.485413296 C0.6054735,0.474906515 0.613885018,0.455293857 0.613885018,0.436615134 C0.613885018,0.421205188 0.604071581,0.402526466 0.590286038,0.394354525 C0.572995696,0.384314712 0.545891917,0.386416068 0.527666962,0.386416068 L0.475795937,0.386416068 L0.475795937,0.493118269 L0.475795937,0.493118269 Z"></path>
                            </g>
                            <path d="M21.9511544,7.51246089 L21.7258148,6.42268166 L19.2809741,6.42268166 L18.880196,7.51246089 L16.8759915,7.51246089 L19.7435794,0.720906885 C19.7435794,0.720906885 19.9177625,0.174302313 20.6317564,0.174302313 L22.1774356,0.174302313 L23.7168378,7.51246089 L21.9511544,7.51246089 Z M19.8352217,4.91694665 L21.4141682,4.91694665 L20.8454839,2.17020412 L19.8352217,4.91694665 Z" id="a" fill="#FFFFFF"></path>
                            <path d="M17.0260087,1.9388404 L17.3006218,0.36294793 C17.3006218,0.36294793 16.4535582,0.0430299092 15.5710304,0.0430299092 C14.6166323,0.0430299092 12.3503686,0.457426643 12.3503686,2.47234891 C12.3503686,4.36847122 15.0105059,4.39216885 15.0105059,5.38715754 C15.0105059,6.38276986 12.6246678,6.20503763 11.8369206,5.57705041 L11.5513231,7.22434758 C11.5513231,7.22434758 12.409685,7.63905613 13.7221784,7.63905613 C15.0340442,7.63905613 17.0143965,6.96367364 17.0143965,5.12679541 C17.0143965,3.21882429 14.3304071,3.04078025 14.3304071,2.21136316 C14.3304071,1.38163426 16.203425,1.4882736 17.0260087,1.9388404" id="s" fill="#FFFFFF"></path>
                            <polyline id="i" fill="#FFFFFF" points="10.3662501 7.51246089 8.44333111 7.51246089 9.64503779 0.174302313 11.5685845 0.174302313 10.3662501 7.51246089"></polyline>
                            <path d="M1.70056089,0.174302313 L3.21595413,0.174302313 C4.05015009,0.174302313 4.12798328,0.835029687 4.12798328,0.835029687 L4.77512853,4.13492483 C4.77512853,4.13492483 4.34014147,2.79632048 3.00410978,1.72181999 C1.60687861,0.598365187 0.150017183,0.298403066 0.149703339,0.298403066 L0.185167652,0.174302313 L1.70056089,0.174302313 L3.21595413,0.174302313 C4.05015009,0.174302313 4.12798328,0.835029687 4.12798328,0.835029687 L4.77512853,4.13492483 L4.77512853,4.13461301 L4.99230822,5.22158594 L6.82546798,0.174302313 L8.89526572,0.174302313 L5.83560564,7.51246089 L3.83202888,7.51246089 L2.16175388,1.13717448 C1.07679698,0.489854981 0.150017183,0.298403066 0.149703339,0.298403066 L0.185167652,0.174302313 L1.70056089,0.174302313 Z" id="v" fill="#FFFFFF"></path>
                            <path d="M4.77512853,4.13492483 L4.12798328,0.835029687 C4.12798328,0.835029687 4.05015009,0.174302313 3.21595413,0.174302313 L0.185167652,0.174302313 L0.149703339,0.298403066 C0.150017183,0.298403066 1.60687861,0.598365187 3.00410978,1.72181999 C4.34014147,2.79632048 4.77512853,4.13492483 4.77512853,4.13492483" id="shape" fill="#F9A533"></path>
                        </g>
                    </g>
                </g>
            </g>
        </g>
    </g>
</svg>