<?xml version="1.0" encoding="UTF-8"?>
<svg width="15px" height="16px" viewBox="0 0 15 16" version="1.1" xmlns="http://www.w3.org/2000/svg" xmlns:xlink="http://www.w3.org/1999/xlink">
    <!-- Generator: Sketch 52.5 (67469) - http://www.bohemiancoding.com/sketch -->
    <title>add to cart icon</title>
    <desc>Created with Sketch.</desc>
    <g id="UI" stroke="none" stroke-width="1" fill="none" fill-rule="evenodd">
        <g transform="translate(-355.000000, -1855.000000)" fill="#FFFFFF" id="Add-to-cart-icon-Click-Copy">
            <g transform="translate(336.000000, 1837.000000)">
                <path d="M32,19 L32,21 L34,21 L34,23 L32,23 L32,25 L30,25 L30,23 L28,23 L28,21 L30,21 L30,19 L32,19 Z M21,28 L21,20 L19,20 L19,18 L22,18 C22.6,18 23,18.4 23,19 L23,27 L33,27 L33,29 L22,29 C21.4,29 21,28.6 21,28 Z M23.414214,30.585786 C24.195262,31.366835 24.195262,32.633165 23.414214,33.4142136 C22.633165,34.1952621 21.366835,34.1952621 20.585786,33.4142136 C19.8047379,32.633165 19.8047379,31.366835 20.585786,30.585786 C21.366835,29.804738 22.633165,29.804738 23.414214,30.585786 Z M33.41421,30.585786 C34.19526,31.366835 34.19526,32.633165 33.41421,33.4142136 C32.63316,34.1952621 31.36684,34.1952621 30.58579,33.4142136 C29.80474,32.633165 29.80474,31.366835 30.58579,30.585786 C31.36684,29.804738 32.63316,29.804738 33.41421,30.585786 Z" id="add-to-cart-icon"></path>
            </g>
        </g>
    </g>
</svg>