<?xml version="1.0" encoding="UTF-8"?>
<svg width="16px" height="16px" viewBox="0 0 16 16" version="1.1" xmlns="http://www.w3.org/2000/svg" xmlns:xlink="http://www.w3.org/1999/xlink">
    <!-- Generator: Sketch 52.5 (67469) - http://www.bohemiancoding.com/sketch -->
    <title>cart</title>
    <desc>Created with Sketch.</desc>
    <g id="Symbols" stroke="none" stroke-width="1" fill="none" fill-rule="evenodd">
        <g id="Header-Main" transform="translate(-1048.000000, -16.000000)" fill="#464855" fill-rule="nonzero">
            <g id="Header">
                <g id="Инфо-Меню">
                    <g id="Navigation" transform="translate(1027.000000, 12.000000)">
                        <g id="Cart" transform="translate(21.000000, 4.000000)">
                            <g id="cart">
                                <path d="M15,2 C16,2 16,3 16,3.3 L14,10.3 C13.8,10.7 13.4,11 13,11 L3,11 C2.4,11 2,10.6 2,10 L2,2 L0,2 L0,0 L3,0 C3.6,0 4,0.4 4,1 L4,9 L12.3,9 L13.7,4 L7,4 L7,2 L15,2 Z M3,16 C1.8954305,16 1,15.1045695 1,14 C1,12.8954305 1.8954305,12 3,12 C4.1045695,12 5,12.8954305 5,14 C5,15.1045695 4.1045695,16 3,16 Z M13,16 C11.8954305,16 11,15.1045695 11,14 C11,12.8954305 11.8954305,12 13,12 C14.1045695,12 15,12.8954305 15,14 C15,15.1045695 14.1045695,16 13,16 Z" id="Combined-Shape"></path>
                            </g>
                        </g>
                    </g>
                </g>
            </g>
        </g>
    </g>
</svg>