<?xml version="1.0" encoding="UTF-8"?>
<svg width="13px" height="16px" viewBox="0 0 13 16" version="1.1" xmlns="http://www.w3.org/2000/svg" xmlns:xlink="http://www.w3.org/1999/xlink">
    <!-- Generator: Sketch 52.5 (67469) - http://www.bohemiancoding.com/sketch -->
    <title>Adress</title>
    <desc>Created with Sketch.</desc>
    <defs>
        <path d="M6.69337979,9 C5.10002867,9 3.80836237,7.65685425 3.80836237,6 C3.80836237,4.34314575 5.10002867,3 6.69337979,3 C8.28673092,3 9.57839721,4.34314575 9.57839721,6 C9.57839721,7.65685425 8.28673092,9 6.69337979,9 Z M6.69337979,8 C7.75561387,8 8.61672474,7.1045695 8.61672474,6 C8.61672474,4.8954305 7.75561387,4 6.69337979,4 C5.63114571,4 4.77003484,4.8954305 4.77003484,6 C4.77003484,7.1045695 5.63114571,8 6.69337979,8 Z M6.98593597,15.896803 C6.81334189,16.034399 6.57341769,16.034399 6.40082361,15.896803 C3.255513,13.3892881 0.923344948,9.32602505 0.923344948,6 C0.923344948,2.72385763 3.54280385,0 6.69337979,0 C9.84395573,0 12.4634146,2.72385763 12.4634146,6 C12.4634146,9.33035773 10.1337402,13.3873001 6.98593597,15.896803 Z M11.5017422,6 C11.5017422,3.27614237 9.31283869,1 6.69337979,1 C4.07392089,1 1.88501742,3.27614237 1.88501742,6 C1.88501742,8.88106794 3.91606848,12.516572 6.6933947,14.8630489 C9.47295108,12.5151459 11.5017422,8.8852299 11.5017422,6 Z" id="path-1"></path>
    </defs>
    <g id="Контакты" stroke="none" stroke-width="1" fill="none" fill-rule="evenodd">
        <g id="Контакты-Магазины-Центр-сантехники" transform="translate(-264.000000, -1152.000000)">
            <g id="Questions" transform="translate(121.000000, 421.000000)">
                <g id="Магазины-Центр-Сантехники" transform="translate(0.000000, 52.000000)">
                    <g id="Кольцевая" transform="translate(138.000000, 469.000000)">
                        <g id="Contact-Info" transform="translate(4.000000, 89.000000)">
                            <g id="Address" transform="translate(1.000000, 120.000000)">
                                <g id="Adress" transform="translate(0.000000, 1.000000)">
                                    <mask id="mask-2" fill="white">
                                        <use xlink:href="#path-1"></use>
                                    </mask>
                                    <g id="ic_map" fill-rule="nonzero"></g>
                                    <g id="icon-color" mask="url(#mask-2)" fill="#8A94A6">
                                        <g transform="translate(-1.000000, 0.000000)" id="Gray-20">
                                            <rect x="0" y="0" width="15.3867596" height="16"></rect>
                                        </g>
                                    </g>
                                </g>
                            </g>
                        </g>
                    </g>
                </g>
            </g>
        </g>
    </g>
</svg>