<?xml version="1.0" encoding="UTF-8"?>
<svg width="16px" height="16px" viewBox="0 0 16 16" version="1.1" xmlns="http://www.w3.org/2000/svg" xmlns:xlink="http://www.w3.org/1999/xlink">
    <!-- Generator: Sketch 52.5 (67469) - http://www.bohemiancoding.com/sketch -->
    <title>navigation-direction-navigator-location-gps</title>
    <desc>Created with Sketch.</desc>
    <g id="Контакты" stroke="none" stroke-width="1" fill="none" fill-rule="evenodd">
        <g id="Контакты-Магазины-Центр-сантехники" transform="translate(-263.000000, -1249.000000)" fill="#8A94A6" fill-rule="nonzero">
            <g id="Questions" transform="translate(121.000000, 421.000000)">
                <g id="Магазины-Центр-Сантехники" transform="translate(0.000000, 52.000000)">
                    <g id="Кольцевая" transform="translate(138.000000, 469.000000)">
                        <g id="Contact-Info" transform="translate(4.000000, 89.000000)">
                            <g id="GPS" transform="translate(0.000000, 216.000000)">
                                <g id="navigation-direction-navigator-location-gps" transform="translate(0.000000, 2.000000)">
                                    <path d="M14.6897038,0.559532719 C14.1801595,0.0471631615 13.4238284,-0.131322049 12.7389743,0.0991835774 L0.879948835,4.05171253 C0.354498996,4.22659979 0,4.71820765 0,5.2719974 C0,5.82578715 0.354498996,6.31739501 0.879948835,6.49228227 L6.64222535,8.41280135 C6.73353804,8.44331914 6.80519806,8.51497915 6.83571585,8.60629185 L8.75623492,14.3685684 C8.92665117,14.8983488 9.42256443,15.2551146 9.97903733,15.2482668 C10.5352425,15.2549798 11.0309703,14.898639 11.2018397,14.3692877 L15.1579652,2.5109815 C15.3871319,1.82444137 15.2054574,1.06732492 14.6897038,0.559532719 Z M14.330056,2.2369299 L10.3739306,14.0952361 C10.3189716,14.2696983 10.1554345,14.3869292 9.97256367,14.3829543 C9.7898817,14.3868474 9.62659561,14.2695863 9.57191606,14.0952361 L7.65715135,8.33295954 C7.53992085,7.98355755 7.26567894,7.70931564 6.91627695,7.59208514 L1.15328114,5.67300466 C0.980933308,5.61522055 0.864783514,5.45377413 0.864783514,5.2719974 C0.864783514,5.09022068 0.980933308,4.92877425 1.15328114,4.87099014 L13.0115873,0.914864712 C13.3861435,0.78994728 13.7991301,0.887405941 14.0783224,1.1665983 C14.3575148,1.44579067 14.4549734,1.85877717 14.330056,2.23333342 L14.330056,2.2369299 Z" id="Shape"></path>
                                </g>
                            </g>
                        </g>
                    </g>
                </g>
            </g>
        </g>
    </g>
</svg>