<?xml version="1.0" encoding="UTF-8"?>
<svg width="16px" height="16px" viewBox="0 0 16 16" version="1.1" xmlns="http://www.w3.org/2000/svg" xmlns:xlink="http://www.w3.org/1999/xlink">
    <!-- Generator: Sketch 52.5 (67469) - http://www.bohemiancoding.com/sketch -->
    <title>Phone</title>
    <desc>Created with Sketch.</desc>
    <defs>
        <path d="M11.1836958,9.89574356 C11.6936026,9.61173816 12.3218364,9.6495118 12.794093,9.99257147 L15.3812391,11.8719427 C15.4852675,11.9475116 15.5791553,12.0361511 15.6605938,12.1356813 C16.1853354,12.7769954 16.0912012,13.7225705 15.4503392,14.2476824 L13.7262434,15.6603781 C13.3200566,15.993201 12.7695362,16.0892592 12.2747937,15.9136377 C9.90523132,15.0726492 7.53055653,13.5641327 5.14864452,11.3927798 C2.71524285,9.17448888 1.02150127,6.61185764 0.0741773213,3.71025887 C-0.0853358287,3.22167926 0.0160957636,2.6853943 0.34300535,2.28893944 L1.78047535,0.545715378 C1.86204455,0.446793507 1.95594828,0.358742611 2.05989101,0.283715136 C2.73165721,-0.201176124 3.66903623,-0.0492998801 4.15358566,0.622940223 L6.01651519,3.20747725 C6.35865723,3.68214833 6.39384586,4.31255438 6.10665875,4.82240357 L5.27392659,6.30077011 C5.69285463,6.9125444 6.35719625,7.67598006 7.2644226,8.58384643 C8.18721737,9.50729219 8.99383587,10.2239764 9.68096721,10.7327259 L11.1836958,9.89574356 Z M1.02456966,3.39953356 C1.9170053,6.13301264 3.51388229,8.54908772 5.82195815,10.6531316 C8.11101549,12.7398381 10.3740708,14.1774481 12.6090256,14.9706626 C12.7739337,15.0292009 12.9574299,14.9971834 13.0928242,14.8862435 L14.81692,13.4735477 C15.0305407,13.2985104 15.0619187,12.9833187 14.8870048,12.7695473 C14.8598587,12.7363706 14.8285627,12.7068241 14.7938866,12.6816345 L12.2067405,10.8022633 C12.0493217,10.68791 11.8399104,10.6753188 11.6699415,10.7699873 L9.89022856,11.761243 C9.72354008,11.8540843 9.51858175,11.8438996 9.36190445,11.7349898 C8.56711766,11.1825161 7.63386472,10.3685196 6.55743614,9.29133164 C5.47525707,8.20838913 4.7120276,7.308898 4.26402485,6.58221345 C4.16847732,6.42723021 4.16463443,6.23253215 4.25399181,6.07389416 L5.23566951,4.33110155 C5.33139855,4.16115182 5.31966901,3.95101647 5.20562166,3.79279277 L3.34269213,1.20825575 C3.18117565,0.984175717 2.86871598,0.933550303 2.64479391,1.09518072 C2.61014633,1.12018988 2.57884509,1.14954018 2.55165116,1.18251923 L1.11418116,2.92574329 C1.00520837,3.05789846 0.971396493,3.23666722 1.02456966,3.39953356 Z" id="path-1"></path>
    </defs>
    <g id="Контакты" stroke="none" stroke-width="1" fill="none" fill-rule="evenodd">
        <g id="Контакты-Магазины-Центр-сантехники" transform="translate(-263.000000, -1071.000000)">
            <g id="Questions" transform="translate(121.000000, 421.000000)">
                <g id="Магазины-Центр-Сантехники" transform="translate(0.000000, 52.000000)">
                    <g id="Кольцевая" transform="translate(138.000000, 469.000000)">
                        <g id="Contact-Info" transform="translate(4.000000, 89.000000)">
                            <g id="Phone" transform="translate(0.000000, 40.000000)">
                                <g>
                                    <mask id="mask-2" fill="white">
                                        <use xlink:href="#path-1"></use>
                                    </mask>
                                    <g id="ic_phone-call" fill-rule="nonzero"></g>
                                    <g id="icon-color" mask="url(#mask-2)" fill="#8A94A6">
                                        <rect id="Gray-20" x="0" y="0" width="16" height="16"></rect>
                                    </g>
                                </g>
                            </g>
                        </g>
                    </g>
                </g>
            </g>
        </g>
    </g>
</svg>