<?xml version="1.0" encoding="UTF-8"?>
<svg width="16px" height="14px" viewBox="0 0 16 14" version="1.1" xmlns="http://www.w3.org/2000/svg" xmlns:xlink="http://www.w3.org/1999/xlink">
    <!-- Generator: Sketch 52.5 (67469) - http://www.bohemiancoding.com/sketch -->
    <title>Fax</title>
    <desc>Created with Sketch.</desc>
    <defs>
        <path d="M11,6 L11,1.5 C11,1.22385763 10.7761424,1 10.5,1 L5.5,1 C5.22385763,1 5,1.22385763 5,1.5 L5,6 L11,6 Z M12,6 L13.5,6 C14.8807119,6 16,7.11928813 16,8.5 L16,10.5 C16,11.8807119 14.8807119,13 13.5,13 L11.5,13 L11.5,12 L13.5,12 C14.3284271,12 15,11.3284271 15,10.5 L15,8.5 C15,7.67157288 14.3284271,7 13.5,7 L2.5,7 C1.67157288,7 1,7.67157288 1,8.5 L1,10.5 C1,11.3284271 1.67157288,12 2.5,12 L4.5,12 L4.5,13 L2.5,13 C1.11928813,13 1.38777878e-16,11.8807119 0,10.5 L0,8.5 C-1.38777878e-16,7.11928813 1.11928813,6 2.5,6 L4,6 L4,1.5 C4,0.671572875 4.67157288,0 5.5,0 L10.5,0 C11.3284271,0 12,0.671572875 12,1.5 L12,6 Z M5.5,12 C5.22385763,12 5,12.2238576 5,12.5 C5,12.7761424 5.22385763,13 5.5,13 L10.5,13 C10.7761424,13 11,12.7761424 11,12.5 C11,12.2238576 10.7761424,12 10.5,12 L5.5,12 Z M5.5,11 L10.5,11 C11.3284271,11 12,11.6715729 12,12.5 C12,13.3284271 11.3284271,14 10.5,14 L5.5,14 C4.67157288,14 4,13.3284271 4,12.5 C4,11.6715729 4.67157288,11 5.5,11 Z" id="path-1"></path>
    </defs>
    <g id="Контакты" stroke="none" stroke-width="1" fill="none" fill-rule="evenodd">
        <g id="Контакты-Магазины-Центр-сантехники" transform="translate(-263.000000, -1112.000000)">
            <g id="Questions" transform="translate(121.000000, 421.000000)">
                <g id="Магазины-Центр-Сантехники" transform="translate(0.000000, 52.000000)">
                    <g id="Кольцевая" transform="translate(138.000000, 469.000000)">
                        <g id="Contact-Info" transform="translate(4.000000, 89.000000)">
                            <g id="Fax" transform="translate(0.000000, 80.000000)">
                                <g transform="translate(0.000000, 1.000000)">
                                    <mask id="mask-2" fill="white">
                                        <use xlink:href="#path-1"></use>
                                    </mask>
                                    <g id="ic_printer" fill-rule="nonzero"></g>
                                    <g id="icon-color" mask="url(#mask-2)" fill="#8A94A6">
                                        <g transform="translate(0.000000, -1.000000)" id="Gray-20">
                                            <rect x="0" y="0" width="16" height="16"></rect>
                                        </g>
                                    </g>
                                </g>
                            </g>
                        </g>
                    </g>
                </g>
            </g>
        </g>
    </g>
</svg>