<?xml version="1.0" encoding="UTF-8"?>
<svg width="40px" height="25px" viewBox="0 0 40 25" version="1.1" xmlns="http://www.w3.org/2000/svg" xmlns:xlink="http://www.w3.org/1999/xlink">
    <!-- Generator: Sketch 52.5 (67469) - http://www.bohemiancoding.com/sketch -->
    <title>mastercard icon</title>
    <desc>Created with Sketch.</desc>
    <g id="Main" stroke="none" stroke-width="1" fill="none" fill-rule="evenodd">
        <g id="Main-Copy-5" transform="translate(-804.000000, -3877.000000)">
            <g id="Footer" transform="translate(0.000000, 3398.000000)">
                <g id="payment-icons" transform="translate(748.000000, 479.000000)">
                    <g id="mastercard-icon" transform="translate(56.000000, 0.000000)">
                        <g id="card" fill="#14457C">
                            <rect x="0" y="0" width="40" height="25" rx="4"></rect>
                        </g>
                        <g id="logo" transform="translate(7.500000, 5.000000)">
                            <path d="M14.8798009,7.47389764 C14.8798009,11.6017323 11.5548009,14.9475591 7.4530403,14.9475591 C3.35092762,14.9475591 0.0256928779,11.6017323 0.0256928779,7.47389764 C0.0256928779,3.3461811 3.35092762,0 7.4530403,0 C11.5548009,0 14.8798009,3.3461811 14.8798009,7.47389764" id="Fill-2" fill="#D82332"></path>
                            <path d="M17.4972891,0 C15.5779229,0 13.8294487,0.732637795 12.5111389,1.93452756 C12.2430638,2.17948819 11.9925943,2.44405512 11.7617257,2.72574803 L13.2620779,2.72574803 C13.4670074,2.97685039 13.6559746,3.24082677 13.828275,3.51732283 L11.1951764,3.51732283 C11.0377821,3.77137795 10.8944722,4.03535433 10.7673595,4.30889764 L14.2560919,4.30889764 C14.3753408,4.56507874 14.4802703,4.82893701 14.5706459,5.10011811 L10.4528056,5.10011811 C10.3670074,5.35795276 10.2948243,5.62192913 10.2369605,5.89122047 L14.7861389,5.89122047 C14.8949417,6.40145669 14.9529229,6.93082677 14.9529229,7.47389764 C14.9529229,8.30362205 14.8186506,9.10228346 14.5706459,9.84814961 L10.4528056,9.84814961 C10.5430638,10.1192126 10.6481107,10.3833071 10.7671248,10.6398425 L14.2560919,10.6398425 C14.1286272,10.9126772 13.9860215,11.1768898 13.8276882,11.4312992 L11.1951764,11.4312992 C11.3670074,11.7069685 11.5563267,11.9712992 11.7617257,12.2220472 L13.2616084,12.2220472 C13.0310919,12.5039764 12.7805051,12.7685433 12.511491,13.0135039 C13.8296835,14.2153937 15.5779229,14.9475591 17.4972891,14.9475591 C21.5990497,14.9475591 24.9242844,11.6017323 24.9242844,7.47389764 C24.9242844,3.34653543 21.5990497,0 17.4972891,0" id="Fill-3" fill="#F1AB3E"></path>
                            <path d="M23.851984,11.6355663 C23.851984,11.471593 23.9843061,11.3385827 24.1473975,11.3385827 C24.3107777,11.3385827 24.4425221,11.471593 24.4425221,11.6355663 C24.4425221,11.799685 24.3107777,11.9328407 24.1473975,11.9328407 C23.9843061,11.9328407 23.851984,11.799685 23.851984,11.6355663 L23.851984,11.6355663 Z M24.1473975,11.8616111 C24.2709078,11.8616111 24.3717384,11.7602907 24.3717384,11.6355663 C24.3717384,11.5104058 24.2709078,11.4099576 24.1473975,11.4099576 C24.0233093,11.4099576 23.9227676,11.5104058 23.9227676,11.6355663 C23.9227676,11.7602907 24.0233093,11.8616111 24.1473975,11.8616111 L24.1473975,11.8616111 Z M24.107383,11.76596 L24.0467113,11.76596 L24.0467113,11.505318 L24.1566427,11.505318 C24.1793223,11.505318 24.2027243,11.505318 24.2229482,11.5178195 C24.2436055,11.5326469 24.2557398,11.5575045 24.2557398,11.5833798 C24.2557398,11.6128892 24.2388384,11.6405088 24.2106694,11.6509752 L24.258629,11.76596 L24.1914567,11.76596 L24.1515867,11.6628952 L24.107383,11.6628952 L24.107383,11.76596 L24.107383,11.76596 Z M24.107383,11.617977 L24.1408969,11.617977 C24.1533202,11.617977 24.1666102,11.6188492 24.1778778,11.6128892 C24.1877008,11.6063477 24.1930457,11.5947184 24.1930457,11.5827983 C24.1930457,11.5729134 24.1864007,11.5612841 24.1781667,11.5561962 C24.1674769,11.5499455 24.15072,11.5512538 24.1394524,11.5512538 L24.107383,11.5512538 L24.107383,11.617977 L24.107383,11.617977 Z" id="registered" fill="#F1AB3E"></path>
                            <path d="M23.851984,9.27365233 C23.851984,9.10895215 23.984595,8.97637795 24.1468196,8.97637795 C24.3101999,8.97637795 24.4419442,9.10895215 24.4419442,9.27365233 C24.4419442,9.43718958 24.3101999,9.57063598 24.1468196,9.57063598 C23.984595,9.57063598 23.851984,9.43718958 23.851984,9.27365233 L23.851984,9.27365233 Z M24.1468196,9.49940642 C24.2711967,9.49940642 24.3717384,9.39808601 24.3717384,9.27365233 C24.3717384,9.14907329 24.2711967,9.04775288 24.1468196,9.04775288 C24.0230204,9.04775288 23.9227676,9.14907329 23.9227676,9.27365233 C23.9227676,9.39808601 24.0230204,9.49940642 24.1468196,9.49940642 L24.1468196,9.49940642 Z M24.1070941,9.40346457 L24.0467113,9.40346457 L24.0467113,9.14282253 L24.1563538,9.14282253 C24.1793223,9.14282253 24.2024354,9.14369473 24.2225148,9.15619624 C24.2438944,9.17029679 24.2554509,9.19529982 24.2554509,9.22117505 C24.2554509,9.25068443 24.2385495,9.27830406 24.2109583,9.28877044 L24.258629,9.40346457 L24.1914567,9.40346457 L24.1515867,9.30039976 L24.1070941,9.30039976 L24.1070941,9.40346457 L24.1070941,9.40346457 Z M24.1070941,9.25577226 L24.140608,9.25577226 C24.1527424,9.25577226 24.1668991,9.25693519 24.1775889,9.25068443 C24.1874119,9.24443368 24.1924679,9.23193216 24.1924679,9.22059358 C24.1924679,9.21070866 24.1866896,9.19966081 24.1781667,9.19355542 C24.1677658,9.18774076 24.15072,9.18933979 24.1394524,9.18933979 L24.1070941,9.18933979 L24.1070941,9.25577226 L24.1070941,9.25577226 Z" id="registered" fill="#FFFFFE"></path>
                            <path d="M23.0922422,5.78740157 L22.9130168,6.8826378 C22.6929464,6.5907874 22.4560919,6.37937008 22.1434159,6.37937008 C21.736491,6.37937008 21.3663032,6.68976378 21.1238149,7.14685039 C20.7860215,7.07633858 20.4371952,6.95645669 20.4371952,6.95645669 L20.4369605,6.95940945 C20.463721,6.70393701 20.4752234,6.54850394 20.4725239,6.49535433 L19.7317962,6.49535433 C19.6312093,7.44980315 19.4516318,8.4161811 19.3116084,9.37098425 L19.2745192,9.57838583 L20.0814441,9.57838583 C20.1902469,8.86688976 20.2734628,8.2753937 20.3349652,7.8069685 C20.6106694,7.55622047 20.7486976,7.33795276 21.0267492,7.35212598 C20.9035098,7.6523622 20.8314441,7.99795276 20.8314441,8.35251969 C20.8314441,9.12295276 21.2186506,9.63165354 21.8050356,9.63165354 C22.1005755,9.63165354 22.3272187,9.52901575 22.5484628,9.29137795 L22.5104347,9.57814961 L23.2733455,9.57814961 L23.88743,5.78740157 L23.0922422,5.78740157 L23.0922422,5.78740157 Z M22.0837915,8.8661811 C21.8093783,8.8661811 21.6705286,8.66137795 21.6705286,8.25838583 C21.6705286,7.6523622 21.9302703,7.22279528 22.2958807,7.22279528 C22.5729933,7.22279528 22.7231107,7.43492126 22.7231107,7.8265748 C22.7231107,8.43779528 22.4590262,8.8661811 22.0837915,8.8661811 L22.0837915,8.8661811 Z" id="Fill-12" fill="#0C2D5A"></path>
                            <path d="M18.4570309,8.27468504 C18.372876,8.26476378 18.335552,8.26204724 18.2775708,8.26204724 C17.8206459,8.26204724 17.5893079,8.4196063 17.5893079,8.73106299 C17.5893079,8.92275591 17.7022187,9.04547244 17.878275,9.04547244 C18.2064441,9.04547244 18.4435333,8.73082677 18.4570309,8.27468504 L18.4570309,8.27468504 Z M19.0438854,9.64795276 L18.3759276,9.64795276 L18.3910685,9.32870079 C18.1871952,9.58086614 17.9153642,9.70145669 17.5462328,9.70145669 C17.1089088,9.70145669 16.8097304,9.35775591 16.8097304,8.85909449 C16.8097304,8.10814961 17.3303877,7.67090551 18.225106,7.67090551 C18.3165379,7.67090551 18.4334394,7.67929134 18.553275,7.69488189 C18.578275,7.59283465 18.5849652,7.54948819 18.5849652,7.4942126 C18.5849652,7.29035433 18.4449417,7.21440945 18.0680638,7.21440945 C17.6736976,7.20968504 17.3486976,7.30854331 17.2145426,7.35259843 C17.2231107,7.3015748 17.3263971,6.65940945 17.3263971,6.65940945 C17.728275,6.54082677 17.9930638,6.49606299 18.2913032,6.49606299 C18.9836741,6.49606299 19.3505755,6.80917323 19.3497539,7.40019685 C19.3512797,7.55858268 19.3252234,7.75452756 19.2846131,8.01106299 C19.21466,8.45716535 19.0645426,9.41527559 19.0438854,9.64795276 L19.0438854,9.64795276 Z" id="a" fill="#0C2D5A"></path>
                            <path d="M16.330153,6.60826772 C16.5540966,6.60826772 16.7631342,6.66685039 17.0506929,6.81283465 L17.1827351,5.99019685 C17.0641905,5.9434252 16.6485802,5.66929134 16.2964675,5.66929134 C15.7570309,5.66929134 15.3003408,5.93905512 14.9799182,6.38326772 C14.5118431,6.2273622 14.3192375,6.54248031 14.0835567,6.85665354 L13.8740497,6.9057874 C13.8898948,6.80244094 13.9043314,6.69968504 13.8997539,6.59574803 L13.1587915,6.59574803 C13.0579699,7.55019685 12.8787445,8.5165748 12.7383689,9.47137795 L12.7017492,9.67877953 L13.5084394,9.67877953 C13.6429464,8.79838583 13.7165379,8.23488189 13.761491,7.85314961 L14.0652469,7.68377953 C14.1109041,7.51358268 14.2525708,7.45641732 14.53743,7.46338583 C14.5003408,7.66440945 14.480153,7.8761811 14.480153,8.09527559 C14.480153,9.10405512 15.0215849,9.73204724 15.8893079,9.73204724 C16.1127821,9.73204724 16.3049182,9.70251969 16.6022187,9.62102362 L16.7434159,8.75716535 C16.4761624,8.88933071 16.2572656,8.9515748 16.0586741,8.9515748 C15.5898948,8.9515748 15.3063267,8.60326772 15.3063267,8.02795276 C15.3063267,7.1930315 15.7279229,6.60826772 16.330153,6.60826772" id="Fill-11" fill="#0C2D5A"></path>
                            <path d="M12.4244018,9.57673228 C12.1490497,9.66153543 11.8829699,9.70169291 11.6018666,9.70145669 C10.7044487,9.70086614 10.2369605,9.22901575 10.2369605,8.3261811 C10.2369605,7.27204724 10.8317962,6.49606299 11.6391905,6.49606299 C12.3005755,6.49606299 12.7224065,6.93047244 12.7224065,7.61232283 C12.7224065,7.83826772 12.6930638,8.05877953 12.6238149,8.37023622 L11.0276882,8.37023622 C10.9734628,8.81751969 11.2580872,9.00413386 11.7241671,9.00413386 C12.0109041,9.00413386 12.2698243,8.94437008 12.5578525,8.80972441 L12.4244018,9.57673228 L12.4244018,9.57673228 Z M11.9739323,7.74850394 C11.978275,7.68401575 12.0587915,7.19822835 11.6008102,7.19822835 C11.3456459,7.19822835 11.1631342,7.39440945 11.088721,7.74850394 L11.9739323,7.74850394 L11.9739323,7.74850394 Z" id="e" fill="#0C2D5A"></path>
                            <path d="M9.9279127,9.64429134 C9.7073728,9.7142126 9.53530707,9.74456693 9.34880472,9.74456693 C8.93659815,9.74456693 8.71148078,9.50610236 8.71148078,9.06755906 C8.70584697,8.9307874 8.77098782,8.5730315 8.82216153,8.24562992 C8.8686404,7.95732283 9.17180942,6.14173228 9.17180942,6.14173228 L9.97321787,6.14173228 L9.87955589,6.60826772 L10.2909409,6.60826772 L10.1814338,7.34905512 L9.7686404,7.34905512 C9.67556528,7.93582677 9.54270143,8.66574803 9.54117561,8.76259843 C9.54117561,8.92204724 9.62568266,8.99102362 9.81746669,8.99102362 C9.90925073,8.99102362 9.98037749,8.98192913 10.0348376,8.9619685 L9.9279127,9.64429134" id="t" fill="#0C2D5A"></path>
                            <path d="M6.78625626,7.53968504 C6.78625626,7.93003937 6.97428443,8.19838583 7.40045814,8.40070866 C7.72686659,8.55519685 7.77733607,8.60090551 7.77733607,8.74098425 C7.77733607,8.93314961 7.63343936,9.01984252 7.3143079,9.01984252 C7.07369757,9.01984252 6.84998865,8.98228346 6.59177269,8.89854331 C6.59177269,8.89854331 6.48613889,9.57779528 6.48109194,9.60992126 C6.6643079,9.65031496 6.82780555,9.68716535 7.32005908,9.70145669 C8.17099804,9.70145669 8.56395579,9.37559055 8.56395579,8.67106299 C8.56395579,8.24728346 8.3994018,7.99877953 7.99552856,7.81216535 C7.65750039,7.65566929 7.61865062,7.62106299 7.61865062,7.4769685 C7.61865062,7.31031496 7.75257081,7.22456693 8.01325156,7.22456693 C8.17135015,7.22456693 8.38766471,7.24228346 8.59259429,7.27133858 L8.70738302,6.55641732 C8.4985802,6.52322835 8.18214828,6.49606299 7.99764123,6.49606299 C7.09564593,6.49606299 6.78355673,6.97015748 6.78625626,7.53968504" id="s" fill="#0C2D5A"></path>
                            <path d="M5.78156142,8.27468504 C5.69705438,8.26476378 5.65973044,8.26204724 5.60163185,8.26204724 C5.14458959,8.26204724 4.91325156,8.4196063 4.91325156,8.73106299 C4.91325156,8.92275591 5.02616236,9.04547244 5.20233607,9.04547244 C5.5308572,9.04547244 5.76759429,8.73082677 5.78156142,8.27468504 L5.78156142,8.27468504 Z M6.3679464,9.64795276 L5.69998865,9.64795276 L5.71524687,9.32870079 C5.511491,9.58086614 5.23954264,9.70145669 4.87017645,9.70145669 C4.43320462,9.70145669 4.1336741,9.35775591 4.1336741,8.85909449 C4.1336741,8.10814961 4.65468349,7.67090551 5.54916706,7.67090551 C5.64071635,7.67090551 5.7578525,7.67929134 5.87780555,7.69488189 C5.90280555,7.59283465 5.90937832,7.54948819 5.90937832,7.4942126 C5.90937832,7.29035433 5.76888537,7.21440945 5.39235954,7.21440945 C4.99764123,7.20968504 4.67252386,7.30854331 4.53872105,7.35259843 C4.54717175,7.3015748 4.65057551,6.65940945 4.65057551,6.65940945 C5.05233607,6.54082677 5.31735954,6.49606299 5.61559898,6.49606299 C6.30796987,6.49606299 6.67463654,6.80917323 6.67393231,7.40019685 C6.67534077,7.55858268 6.64928443,7.75452756 6.60879147,8.01106299 C6.53872105,8.45716535 6.38848631,9.41527559 6.3679464,9.64795276 L6.3679464,9.64795276 Z" id="a" fill="#0C2D5A"></path>
                            <polyline id="m" fill="#0C2D5A" points="3.72839241 9.69614173 2.92217175 9.69614173 3.38414358 6.78212598 2.35280555 9.69614173 1.80327504 9.69614173 1.73531729 6.79901575 1.24987128 9.69614173 0.495176446 9.69614173 1.12557551 5.90551181 2.28508255 5.90551181 2.31735954 8.25212598 3.09975391 5.90551181 4.35198396 5.90551181 3.72839241 9.69614173"></polyline>
                            <path d="M23.5942375,9.45992126 L22.8316788,9.45992126 L22.8694722,9.1730315 C22.6482281,9.4107874 22.4214675,9.5134252 22.126045,9.5134252 C21.5400121,9.5134252 21.1524534,9.00531496 21.1524534,8.23405512 C21.1524534,7.20862205 21.7535098,6.34429134 22.4643079,6.34429134 C22.7771013,6.34429134 23.0138384,6.47279528 23.2343783,6.76476378 L23.4132516,5.66929134 L24.2084394,5.66929134 L23.5942375,9.45992126 L23.5942375,9.45992126 Z M22.4048009,8.74759843 C22.7805051,8.74759843 23.0441201,8.31944882 23.0441201,7.7088189 C23.0441201,7.31704724 22.8940027,7.10433071 22.6167727,7.10433071 C22.2511624,7.10433071 21.9914206,7.53389764 21.9914206,8.14015748 C21.9914206,8.54374016 22.1306225,8.74759843 22.4048009,8.74759843 L22.4048009,8.74759843 Z" id="d-2" fill="#FFFFFE"></path>
                            <path d="M19.9664206,6.29294017 C19.8654816,7.24715277 19.6862563,8.21364883 19.545998,9.16833387 L19.509261,9.37573544 L20.3157164,9.37573544 C20.6040966,7.49045985 20.6735802,7.12254647 21.1261624,7.16849135 C21.1981107,6.78262521 21.3321483,6.44471182 21.4321483,6.27439686 C21.0944722,6.20353072 20.9058572,6.39557796 20.6586741,6.76053859 C20.6783924,6.60262521 20.7139558,6.44943623 20.7072656,6.29294017 L19.9664206,6.29294017" id="r-2" fill="#FFFFFE"></path>
                            <path d="M18.6917727,8.03846457 C18.6076178,8.02854331 18.5702938,8.02582677 18.5123126,8.02582677 C18.0553877,8.02582677 17.8240497,8.18338583 17.8240497,8.49484252 C17.8240497,8.68653543 17.9369605,8.80925197 18.1130168,8.80925197 C18.4411858,8.80925197 18.678275,8.4946063 18.6917727,8.03846457 L18.6917727,8.03846457 Z M19.2786272,9.41173228 L18.6106694,9.41173228 L18.6258102,9.09248031 C18.421937,9.34464567 18.150106,9.46523622 17.7809746,9.46523622 C17.3436506,9.46523622 17.0444722,9.12153543 17.0444722,8.62287402 C17.0444722,7.87192913 17.5651295,7.43468504 18.4598478,7.43468504 C18.5512797,7.43468504 18.6681811,7.44307087 18.7880168,7.45866142 C18.8130168,7.35661417 18.819707,7.31326772 18.819707,7.25799213 C18.819707,7.05413386 18.6796835,6.97818898 18.3028056,6.97818898 C17.9084394,6.97346457 17.5834394,7.07232283 17.4492844,7.11637795 C17.4578525,7.06535433 17.5611389,6.42318898 17.5611389,6.42318898 C17.9630168,6.3046063 18.2278056,6.25984252 18.526045,6.25984252 C19.2184159,6.25984252 19.5853173,6.57295276 19.5844957,7.16397638 C19.5860215,7.3223622 19.5599652,7.51830709 19.5193548,7.77484252 C19.4494018,8.22094488 19.2992844,9.17905512 19.2786272,9.41173228 L19.2786272,9.41173228 Z" id="a-2" fill="#FFFFFE"></path>
                            <path d="M17.3992844,5.74807087 L17.2672422,6.57070866 C16.9793314,6.42507874 16.7707633,6.36614173 16.546937,6.36614173 C15.9449417,6.36614173 15.5227586,6.95161417 15.5227586,7.78665354 C15.5227586,8.3619685 15.8065614,8.70956693 16.2753408,8.70956693 C16.4738149,8.70956693 16.6931811,8.64779528 16.9600825,8.51515748 L16.8184159,9.37901575 C16.5215849,9.46051181 16.3294487,9.49015748 16.1059746,9.49015748 C15.2377821,9.49015748 14.6970544,8.86204724 14.6970544,7.85350394 C14.6970544,6.49830709 15.4445896,5.5511811 16.5130168,5.5511811 C16.8651295,5.5511811 17.2809746,5.70129921 17.3992844,5.74807087" id="c-2" fill="#FFFFFE"></path>
                            <path d="M13.3941201,6.29294017 C13.2927117,7.24715277 13.1132516,8.21364883 12.9732281,9.16833387 L12.936491,9.37573544 L13.7431811,9.37573544 C14.0317962,7.49045985 14.101045,7.12254647 14.5529229,7.16849135 C14.6253408,6.78262521 14.7597304,6.44471182 14.8593783,6.27439686 C14.521937,6.20353072 14.3330872,6.39557796 14.0863736,6.76053859 C14.1058572,6.60262521 14.1416553,6.44943623 14.1344957,6.29294017 L13.3941201,6.29294017" id="r-3" fill="#FFFFFE"></path>
                            <path d="M12.6591436,9.34051181 C12.3837915,9.42531496 12.1177117,9.46547244 11.8366084,9.46523622 C10.9391905,9.46464567 10.4717023,8.99279528 10.4717023,8.08996063 C10.4717023,7.03582677 11.0665379,6.25984252 11.8739323,6.25984252 C12.5353173,6.25984252 12.9571483,6.69425197 12.9571483,7.37610236 C12.9571483,7.60204724 12.9278056,7.82255906 12.8585567,8.13401575 L11.26243,8.13401575 C11.2082046,8.58129921 11.492829,8.76791339 11.9589088,8.76791339 C12.2456459,8.76791339 12.5045661,8.70814961 12.7925943,8.57350394 L12.6591436,9.34051181 L12.6591436,9.34051181 Z M12.2086741,7.51228346 C12.2130168,7.44779528 12.2935333,6.96200787 11.835552,6.96200787 C11.5803877,6.96200787 11.397876,7.15818898 11.3234628,7.51228346 L12.2086741,7.51228346 L12.2086741,7.51228346 Z" id="e-2" fill="#FFFFFE"></path>
                            <path d="M10.1626545,9.40807087 C9.94211458,9.47799213 9.77004885,9.50834646 9.5835465,9.50834646 C9.17133993,9.50834646 8.94622256,9.26988189 8.94622256,8.83133858 C8.94058876,8.69456693 9.0057296,8.33681102 9.05690331,8.00940945 C9.10338219,7.72110236 9.4065512,5.90551181 9.4065512,5.90551181 L10.2079597,5.90551181 L10.1142977,6.37204724 L10.5256827,6.37204724 L10.4161756,7.11283465 L10.0033822,7.11283465 C9.91030707,7.6996063 9.77744322,8.42952756 9.7759174,8.52637795 C9.7759174,8.68582677 9.86042444,8.75480315 10.0522085,8.75480315 C10.1439925,8.75480315 10.2151193,8.74570866 10.2695794,8.72574803 L10.1626545,9.40807087" id="t-2" fill="#FFFFFE"></path>
                            <path d="M7.02099804,7.30346457 C7.02099804,7.6938189 7.20902621,7.96216535 7.63519992,8.16448819 C7.96160837,8.31897638 8.01207785,8.36468504 8.01207785,8.50476378 C8.01207785,8.69692913 7.86818114,8.78362205 7.54904969,8.78362205 C7.30843936,8.78362205 7.08473044,8.74606299 6.82651447,8.66232283 C6.82651447,8.66232283 6.72088067,9.3415748 6.71583372,9.37370079 C6.89904969,9.41409449 7.06254734,9.45094488 7.55480086,9.46523622 C8.40573983,9.46523622 8.79869757,9.13937008 8.79869757,8.43484252 C8.79869757,8.01106299 8.63414358,7.76255906 8.23027034,7.57594488 C7.89224217,7.41944882 7.85339241,7.38484252 7.85339241,7.24074803 C7.85339241,7.07409449 7.9873126,6.98834646 8.24799335,6.98834646 C8.40609194,6.98834646 8.62240649,7.00606299 8.82733607,7.03511811 L8.9421248,6.32019685 C8.73332199,6.28700787 8.41689006,6.25984252 8.23238302,6.25984252 C7.33038771,6.25984252 7.01829851,6.73393701 7.02099804,7.30346457" id="s-2" fill="#FFFFFE"></path>
                            <path d="M6.01630321,8.03846457 C5.93179616,8.02854331 5.89447222,8.02582677 5.83637363,8.02582677 C5.37933138,8.02582677 5.14799335,8.18338583 5.14799335,8.49484252 C5.14799335,8.68653543 5.26090415,8.80925197 5.43707785,8.80925197 C5.76559898,8.80925197 6.00233607,8.4946063 6.01630321,8.03846457 L6.01630321,8.03846457 Z M6.60268818,9.41173228 L5.93473044,9.41173228 L5.94998865,9.09248031 C5.74623278,9.34464567 5.47428443,9.46523622 5.10491823,9.46523622 C4.6679464,9.46523622 4.36841588,9.12153543 4.36841588,8.62287402 C4.36841588,7.87192913 4.88942527,7.43468504 5.78390884,7.43468504 C5.87545814,7.43468504 5.99259429,7.44307087 6.11254734,7.45866142 C6.13754734,7.35661417 6.14412011,7.31326772 6.14412011,7.25799213 C6.14412011,7.05413386 6.00362715,6.97818898 5.62710133,6.97818898 C5.23238302,6.97346457 4.90726565,7.07232283 4.77346283,7.11637795 C4.78191354,7.06535433 4.88531729,6.42318898 4.88531729,6.42318898 C5.28707785,6.3046063 5.55210133,6.25984252 5.85034077,6.25984252 C6.54271166,6.25984252 6.90937832,6.57295276 6.9086741,7.16397638 C6.91008255,7.3223622 6.88402621,7.51830709 6.84353325,7.77484252 C6.77346283,8.22094488 6.62322809,9.17905512 6.60268818,9.41173228 L6.60268818,9.41173228 Z" id="a-3" fill="#FFFFFE"></path>
                            <polyline id="m-2" fill="#FFFFFE" points="3.96313419 9.45992126 3.15691354 9.45992126 3.61888537 6.54590551 2.58754734 9.45992126 2.03801682 9.45992126 1.97005908 6.56279528 1.48461307 9.45992126 0.72991823 9.45992126 1.36031729 5.66929134 2.51982433 5.66929134 2.55210133 8.01590551 3.33449569 5.66929134 4.58672574 5.66929134 3.96313419 9.45992126"></polyline>
                        </g>
                    </g>
                </g>
            </g>
        </g>
    </g>
</svg>