<?xml version="1.0" encoding="UTF-8"?>
<svg width="15px" height="14px" viewBox="0 0 15 14" version="1.1" xmlns="http://www.w3.org/2000/svg" xmlns:xlink="http://www.w3.org/1999/xlink">
    <!-- Generator: Sketch 52.5 (67469) - http://www.bohemiancoding.com/sketch -->
    <title>Cross</title>
    <desc>Created with Sketch.</desc>
    <g id="Корзина" stroke="none" stroke-width="1" fill="none" fill-rule="evenodd">
        <g transform="translate(-1005.000000, -333.000000)" fill="#D4D3D3" fill-rule="nonzero" id="Bag-Table">
            <g transform="translate(0.000000, 130.000000)">
                <g transform="translate(32.067164, 122.000000)">
                    <g id="Item-1" transform="translate(0.000000, 43.000000)">
                        <g id="Cross" transform="translate(973.650028, 38.000000)">
                            <path d="M13.5776277,2.75751745 L9.31976353,6.99990454 L13.5776277,11.2420907 C14.2109639,11.8733002 14.2109639,12.8957752 13.5776277,13.5269847 C13.2611814,13.8422479 12.8462996,14 12.4316194,14 C12.0162535,14 11.6013313,13.842489 11.2851271,13.5269847 L7.0263351,9.28431629 L2.76786584,13.5269445 C2.45145993,13.8422077 2.03653774,13.9999598 1.62149453,13.9999598 C1.20657234,13.9999598 0.791932551,13.8424488 0.475244249,13.5269445 C-0.15809201,12.8960164 -0.15809201,11.8735012 0.475244249,11.2420505 L4.73298734,6.99986435 L0.475002195,2.75751745 C-0.158334065,2.12654908 -0.158334065,1.10383292 0.475002195,0.472864551 C1.10821743,-0.157621517 2.13416649,-0.157621517 2.76762378,0.472864551 L7.02629475,4.71525165 L11.284643,0.472864551 C11.9182213,-0.157621517 12.9442914,-0.157621517 13.5773856,0.472864551 C14.2109639,1.10383292 14.2109639,2.12654908 13.5776277,2.75751745 Z"></path>
                        </g>
                    </g>
                </g>
            </g>
        </g>
    </g>
</svg>